<?xml version="1.0" encoding="UTF-8" standalone="no"?>
<svg xmlns:svg="http://www.w3.org/2000/svg" xmlns="http://www.w3.org/2000/svg" version="1.1" id="svg6930" viewBox="0 0 1072.0371 294.78907" height="294.78906" width="1072.0371">
  <defs id="defs6932"/>
  <g transform="translate(181.73284,-316.39625)" id="layer1">
    <path id="path40" d="m -40.443776,321.39625 c -75.231194,0 -136.289064,57.64878 -136.289064,142.16015 0,75.7149 50.30975,142.62891 136.289064,142.62891 37.6099703,0 73.26895,-15.63076 90.36134,-46.89649 l 0,38.59375 63.994126,0 0,-268.17382 -63.994126,0 0,39.07812 c -11.7155,-21.49625 -41.5139297,-47.39062 -90.36134,-47.39062 z m 329.726556,0 c -46.40645,0 -72.29569,29.79783 -78.15625,42.01952 l 0,-33.70702 -60.08397,0 0,268.17382 63.98827,0 0,-145.08008 c 0,-15.63005 2.4456,-32.23829 10.25781,-46.40039 7.82347,-13.6784 22.47573,-24.91602 45.91798,-24.91602 22.96419,0.48933 36.147,10.7483 43.96484,24.91602 6.83357,13.67277 8.31446,28.81894 8.31446,44.44336 l 0,147.03711 63.98241,0 0,-147.03711 c 0,-16.11936 0.978,-30.28024 9.28515,-44.93164 8.29029,-14.65705 23.92553,-24.42774 46.40039,-24.42774 22.458,0 35.16885,8.79139 42.01369,21.98048 9.27452,14.16207 10.74217,32.73379 10.74217,49.82617 l 0,144.58985 63.98829,0 0,-147.03712 c 0,-55.19729 -4.8877,-77.18226 -29.3086,-102.57618 -20.5176,-21.01253 -48.84691,-26.87303 -71.31055,-26.87303 -28.3298,0 -51.78389,10.75837 -68.39256,26.3828 -8.79085,8.30715 -14.65714,17.09301 -19.53908,25.39453 -3.4196,-6.82795 -10.25295,-18.06613 -16.11914,-24.41601 -19.54457,-21.0013 -43.96537,-27.36132 -65.94531,-27.36132 z m 316.57031,8.36327 c -5.19127,0 -9.38086,4.19545 -9.38086,9.38673 0,5.1744 4.18959,9.37108 9.38086,9.37108 5.17439,0 9.3711,-4.19668 9.3711,-9.37108 0,-5.19128 -4.19671,-9.38673 -9.3711,-9.38673 z m 21.2168,0.29101 c -3.86953,0 -6.77146,2.86279 -8.59375,8.59962 1.56357,6.77171 4.94468,10.16211 10.16407,10.16211 5.71995,-1.82229 8.6211,-4.69069 8.6211,-8.59961 l 0,-1.5625 c 0,-4.82007 -2.90115,-7.68284 -8.6211,-8.59962 l -1.57032,0 z m 22.66407,0 c -4.07203,0 -6.93989,2.86865 -8.63282,8.60548 0,5.20815 3.13247,8.59416 9.38673,10.14649 5.46685,0 8.58954,-3.3804 9.37695,-10.14649 0,-4.82005 -2.86279,-7.69434 -8.59961,-8.60548 l -1.53125,0 z m 67.6836,0 c -3.89768,0 -6.75999,2.86279 -8.58789,8.59962 1.59167,6.77171 4.94466,10.16211 10.16405,10.16211 5.72557,-1.82229 8.6211,-4.69069 8.6211,-8.59961 l 0,-1.5625 c 0,-4.82007 -2.89553,-7.68284 -8.6211,-8.59962 l -1.57616,0 z m 22.67381,0 c -4.0439,0 -6.91253,2.86865 -8.60545,8.60548 0,5.20815 3.16595,8.59416 9.38085,10.14649 5.47247,0 8.62915,-3.3804 9.38281,-10.14649 0,-4.82005 -2.86895,-7.69434 -8.56641,-8.60548 l -1.5918,0 z m 22.625,0 c -3.90328,0 -6.772,2.86279 -8.56054,8.59962 1.5242,6.77171 4.911,10.16211 10.11914,10.16211 5.73685,-1.82229 8.59961,-4.69069 8.59961,-8.59961 l 0,-1.5625 c 0,-4.82007 -2.86276,-7.68284 -8.59961,-8.59962 l -1.5586,0 z m 22.66016,0 c -3.90329,0 -6.77146,2.86279 -8.59375,8.59962 1.55794,6.77171 4.94249,10.16211 10.15625,10.16211 5.75934,-1.82229 8.59961,-4.69069 8.59961,-8.59961 l 0,-1.5625 c 0,-4.82007 -2.84027,-7.68284 -8.59961,-8.59962 l -1.5625,0 z m 21.84375,0 c -3.89766,0 -6.76585,2.86279 -8.59375,8.59962 1.56356,6.77171 4.94469,10.16211 10.16406,10.16211 5.75934,-1.82229 8.59375,-4.69069 8.59375,-8.59961 l 0,-1.5625 c 0,-4.82007 -2.83441,-7.68284 -8.59375,-8.59962 l -1.57031,0 z m 22.63668,0 c -4.0439,0 -6.90545,2.86865 -8.57027,8.60548 0,5.20815 3.12717,8.59416 9.34767,10.14649 5.4725,0 8.5932,-3.3804 9.375,-10.14649 0,-4.82005 -2.8687,-7.69434 -8.5606,-8.60548 l -1.5918,0 z m 22.6543,0 c -3.8976,0 -6.7675,2.86279 -8.5898,8.59962 1.5523,6.77171 4.9444,10.16211 10.1582,10.16211 5.7256,-1.82229 8.5938,-4.69069 8.5938,-8.59961 l 0,-1.5625 c 0,-4.82007 -2.8682,-7.68284 -8.5938,-8.59962 l -1.5684,0 z m 22.629,0 c -3.8977,0 -6.7659,2.86279 -8.5938,8.59962 1.5579,6.77171 4.9484,10.16211 10.1621,10.16211 5.7537,-1.82229 8.5957,-4.69069 8.5957,-8.59961 l 0,-1.5625 c 0,-4.82007 -2.842,-7.68284 -8.5957,-8.59962 l -1.5683,0 z m -270.73443,22.66212 c -3.86955,0 -6.731,2.86278 -8.51952,8.59961 0,5.57372 3.31227,8.95341 10.08397,10.1289 5.73121,-1.82791 8.59961,-4.69069 8.59961,-8.59961 l 0,-1.52929 c 0,-4.82006 -2.8684,-7.68284 -8.59961,-8.59961 l -1.56445,0 z m 22.66406,0 c -3.86953,0 -6.77146,2.86278 -8.59375,8.59961 1.56357,6.73796 4.94468,10.1289 10.16407,10.1289 5.71995,-1.82791 8.6211,-4.69069 8.6211,-8.59961 l 0,-1.52929 c 0,-4.82006 -2.90115,-7.68284 -8.6211,-8.59961 l -1.57032,0 z m 90.34767,0 c -3.89768,0 -6.75999,2.86278 -8.58789,8.59961 1.59167,6.73796 4.94466,10.1289 10.16405,10.1289 5.72557,-1.82791 8.6211,-4.69069 8.6211,-8.59961 l 0,-1.52929 c 0,-4.82006 -2.89553,-7.68284 -8.6211,-8.59961 l -1.57616,0 z m 45.29881,0 c -3.90328,0 -6.772,2.86278 -8.56054,8.59961 0,5.57372 3.34744,8.95341 10.11914,10.1289 5.73685,-1.82791 8.59961,-4.69069 8.59961,-8.59961 l 0,-1.52929 c 0,-4.82006 -2.86276,-7.68284 -8.59961,-8.59961 l -1.5586,0 z m 22.66016,0 c -3.90329,0 -6.77146,2.86278 -8.59375,8.59961 1.55794,6.73796 4.94249,10.1289 10.15625,10.1289 5.75934,-1.82791 8.59961,-4.69069 8.59961,-8.59961 l 0,-1.52929 c 0,-4.82006 -2.84027,-7.68284 -8.59961,-8.59961 l -1.5625,0 z m 21.84375,0 c -3.89766,0 -6.76585,2.86278 -8.59375,8.59961 1.56356,6.73796 4.94469,10.1289 10.16406,10.1289 5.75934,-1.82791 8.59375,-4.69069 8.59375,-8.59961 l 0,-1.52929 c 0,-4.82006 -2.83441,-7.68284 -8.59375,-8.59961 l -1.57031,0 z m 45.29098,0 c -3.8976,0 -6.7675,2.86278 -8.5898,8.59961 0,5.57372 3.3809,8.95341 10.1582,10.1289 5.7256,-1.82791 8.5938,-4.69069 8.5938,-8.59961 l 0,-1.52929 c 0,-4.82006 -2.8682,-7.68284 -8.5938,-8.59961 l -1.5684,0 z m 22.629,0 c -3.8977,0 -6.7659,2.86278 -8.5938,8.59961 1.5579,6.73796 4.9484,10.1289 10.1621,10.1289 5.7537,-1.82791 8.5957,-4.69069 8.5957,-8.59961 l 0,-1.52929 c 0,-4.82006 -2.842,-7.68284 -8.5957,-8.59961 l -1.5683,0 z m -225.4063,0.007 c -3.94267,0 -6.77115,2.86277 -8.63282,8.59961 0,5.55685 3.4261,8.94732 10.16407,10.11719 4.82006,0 7.68846,-3.38485 8.59961,-10.11719 0,-4.82006 -2.86279,-7.69409 -8.59961,-8.59961 l -1.53125,0 z m 90.35741,0 c -3.90891,0 -6.77755,2.86277 -8.60545,8.59961 0,5.55685 3.38619,8.94732 10.19725,10.11719 4.78631,0 7.64964,-3.38485 8.56641,-10.11719 0,-4.82006 -2.86895,-7.69409 -8.56641,-8.59961 l -0.8164,0 -0.7754,0 z m 89.76559,0 c -3.9089,0 -6.78174,2.86277 -8.57027,8.59961 0,5.55685 3.36227,8.94732 10.16207,10.11719 4.7864,0 7.6494,-3.38485 8.5606,-10.11719 0,-4.82006 -2.8687,-7.69409 -8.5606,-8.59961 l -0.8144,0 -0.7774,0 z M 605.97028,375.3396 c -6.7717,0.9224 -10.08397,3.77955 -10.08397,8.59961 0,4.94942 2.82206,8.34177 8.51952,10.16406 6.78296,-1.0405 10.16406,-3.91452 10.16406,-8.5996 l 0,-1.56446 c 0,-4.82006 -2.8684,-7.67721 -8.59961,-8.59961 z m 22.66993,0 c -6.77734,0.9224 -10.16407,3.77955 -10.16407,8.59961 0,4.94942 2.86255,8.34177 8.59375,10.16406 6.77172,-1.0405 10.19142,-3.91452 10.19142,-8.5996 l 0,-1.56446 c 0,-4.82006 -2.90115,-7.67721 -8.6211,-8.59961 z m 90.35351,0 c -6.77734,0.9224 -10.16405,3.77955 -10.16405,8.59961 0,4.94942 2.86794,8.34177 8.58789,10.16406 6.77732,-1.0405 10.19726,-3.91452 10.19726,-8.5996 l 0,-1.56446 c 0,-4.82006 -2.89553,-7.67721 -8.6211,-8.59961 z m 45.28125,0 c -6.7717,0.9224 -10.11914,3.77955 -10.11914,8.59961 0,4.94942 2.82934,8.34177 8.56054,10.16406 6.77172,-1.0405 10.15821,-3.91452 10.15821,-8.5996 l 0,-1.56446 c 0,-4.82006 -2.86276,-7.67721 -8.59961,-8.59961 z m 22.66406,0 c -6.7717,0.9224 -10.15625,3.77955 -10.15625,8.59961 0,4.94942 2.86819,8.34177 8.59375,10.16406 6.74359,-1.0405 10.16211,-3.91452 10.16211,-8.5996 l 0,-1.56446 c 0,-4.82006 -2.84027,-7.67721 -8.59961,-8.59961 z m 21.85156,0 c -6.77732,0.9224 -10.16406,3.77955 -10.16406,8.59961 0,4.94942 2.86819,8.34177 8.59375,10.16406 6.74359,-1.0405 10.16406,-3.91452 10.16406,-8.5996 l 0,-1.56446 c 0,-4.82006 -2.83441,-7.67721 -8.59375,-8.59961 z m 45.28907,0 c -6.7773,0.9224 -10.1582,3.77955 -10.1582,8.59961 0,4.94942 2.8643,8.34177 8.5898,10.16406 6.7774,-1.0405 10.1622,-3.91452 10.1622,-8.5996 l 0,-1.56446 c 0,-4.82006 -2.8682,-7.67721 -8.5938,-8.59961 z m 22.6289,0 c -6.7773,0.9224 -10.1621,3.77955 -10.1621,8.59961 0,4.94942 2.8682,8.34177 8.5938,10.16406 6.7773,-1.0405 10.164,-3.91452 10.164,-8.5996 l 0,-1.56446 c 0,-4.82006 -2.842,-7.67721 -8.5957,-8.59961 z m -225.44335,0.002 c -6.73797,0.9106 -10.16407,3.77925 -10.16407,8.60492 1.3386,6.76609 4.17834,10.14649 8.63282,10.14649 6.11928,0 9.47281,-3.3804 10.13086,-10.14649 0,-4.82567 -2.86279,-7.69432 -8.59961,-8.60547 z m 90.41796,0 c -6.81106,0.91115 -10.19725,3.7798 -10.19725,8.60547 1.31046,6.76609 4.17347,10.14649 8.60545,10.14649 6.11367,0 9.50016,-3.3804 10.15821,-10.14649 0,-4.82567 -2.86895,-7.69432 -8.56641,-8.60547 z m 89.76559,0 c -6.7998,0.91115 -10.16207,3.7798 -10.16207,8.60547 1.27673,6.76609 4.13837,10.14649 8.57027,10.14649 6.1193,0 9.5,-3.3804 10.1524,-10.14649 0,-4.82567 -2.8687,-7.69432 -8.5606,-8.60547 z m -863.101526,5.65625 c 38.5886303,0 63.50454,21.98525 74.73634,47.38477 5.37687,11.7155 7.8118,24.9096 7.32812,37.60938 -0.97863,13.18907 -3.90793,25.88262 -10.25782,37.60937 -12.21606,24.4209 -35.6600097,42.99414 -71.31835,42.99414 -57.638257,0 -81.580074,-48.36467 -81.580074,-81.58204 l 0,-0.48827 c 0,-41.51889 29.314099,-83.52735 81.091784,-83.52735 z m 637.623046,17.00391 c -6.7717,0.9224 -10.08397,3.77955 -10.08397,8.59961 1.00675,6.73795 4.09458,10.1289 9.30272,10.1289 6.25426,-1.30485 9.38086,-4.1674 9.38086,-8.59375 l 0,-1.53515 c 0,-4.82006 -2.8684,-7.67721 -8.59961,-8.59961 z m 21.88868,0 c -4.82569,0 -7.95424,3.12712 -9.38282,9.34766 1.82229,6.25425 4.94522,9.38085 9.38282,9.38085 6.25426,-1.30485 9.40235,-4.1674 9.40235,-8.59375 l 0,-1.53515 c 0,-4.82006 -2.90115,-7.67721 -8.6211,-8.59961 l -0.78125,0 z m 23.40625,0 c -6.73797,0.91676 -10.16407,3.7798 -10.16407,8.60546 1.07988,6.73235 4.17858,10.1172 9.38673,10.1172 5.46685,0 8.58954,-3.38485 9.37695,-10.1172 0,-4.82566 -2.86279,-7.6887 -8.59961,-8.60546 z m 66.94141,0 c -4.81445,0 -7.94839,3.12712 -9.37695,9.34766 1.8279,6.25425 4.94496,9.38085 9.37695,9.38085 6.24865,-1.30485 9.4082,-4.1674 9.4082,-8.59375 l 0,-1.53515 c 0,-4.82006 -2.89553,-7.67721 -8.6211,-8.59961 l -0.7871,0 z m 23.47655,0 c -6.81106,0.91676 -10.19725,3.7798 -10.19725,8.60546 1.0405,6.73235 4.1727,10.1172 9.38085,10.1172 5.47247,0 8.62915,-3.38485 9.38281,-10.1172 0,-4.82566 -2.86895,-7.6887 -8.56641,-8.60546 z m 22.5918,0 c -6.7717,0.9224 -10.11914,3.77955 -10.11914,8.59961 1.00676,6.73795 4.13536,10.1289 9.33789,10.1289 6.2599,-1.30485 9.38086,-4.1674 9.38086,-8.59375 l 0,-1.53515 c 0,-4.82006 -2.86276,-7.67721 -8.59961,-8.59961 z m 67.17379,0 c -6.7998,0.91676 -10.16207,3.7798 -10.16207,8.60546 1.01238,6.73235 4.13947,10.1172 9.34767,10.1172 5.4725,0 8.5932,-3.38485 9.375,-10.1172 0,-4.82566 -2.8687,-7.6887 -8.5606,-8.60546 z m 22.6309,0 c -6.7773,0.9224 -10.1582,3.77955 -10.1582,8.59961 1.0405,6.73795 4.1964,10.1289 9.4102,10.1289 6.2205,-1.30485 9.3418,-4.1674 9.3418,-8.59375 l 0,-1.53515 c 0,-4.82006 -2.8682,-7.67721 -8.5938,-8.59961 z m 21.8477,0 c -4.7863,0 -7.9467,3.12712 -9.3809,9.34766 1.8279,6.25425 4.9489,9.38085 9.3809,9.38085 6.2542,-1.30485 9.3769,-4.1674 9.3769,-8.59375 l 0,-1.53515 c 0,-4.82006 -2.842,-7.67721 -8.5957,-8.59961 l -0.7812,0 z m -270.73833,22.63421 c -4.42636,0 -7.5142,2.85693 -9.30272,8.59376 1.00675,6.77171 4.09458,10.16211 9.30272,10.16211 6.25426,-1.31048 9.38086,-4.17325 9.38086,-8.59961 l 0,-1.5625 c 0,-4.82006 -2.8684,-7.67698 -8.59961,-8.59376 l -0.78125,0 z m 22.66993,0 c -4.82569,0 -7.95424,3.12051 -9.38282,9.36916 0,4.8313 3.13417,7.94687 9.38282,9.38671 6.25426,-1.31048 9.40235,-4.17325 9.40235,-8.59961 l 0,-1.5625 c 0,-4.82006 -2.90115,-7.67698 -8.6211,-8.59376 l -0.78125,0 z m 23.40235,0 c -6.73795,0.91678 -10.15625,3.7737 -10.15625,8.59376 1.07986,6.77171 4.16686,10.16211 9.375,10.16211 6.28237,-1.31048 9.38086,-4.17325 9.38086,-8.59961 l 0,-1.5625 c -1.4286,-5.73683 -4.297,-8.59376 -8.59961,-8.59376 z m 66.94531,0 c -4.81445,0 -7.94839,3.12051 -9.37695,9.36916 0,4.8313 3.13391,7.94687 9.37695,9.38671 6.24865,-1.31048 9.4082,-4.17325 9.4082,-8.59961 l 0,-1.5625 c 0,-4.82006 -2.89553,-7.67698 -8.6211,-8.59376 l -0.7871,0 z m 23.47265,0 c -6.79983,0.91678 -10.18555,3.7737 -10.18555,8.59376 1.0405,6.77171 4.16295,10.16211 9.3711,10.16211 6.25425,-1.31048 9.38085,-4.17325 9.38085,-8.59961 l 0,-1.5625 c -1.42859,-5.73683 -4.2919,-8.59376 -8.5664,-8.59376 z m 21.81445,0 c -4.42635,0 -7.54935,2.85693 -9.33789,8.59376 1.00676,6.77171 4.13536,10.16211 9.33789,10.16211 6.2599,-1.31048 9.38086,-4.17325 9.38086,-8.59961 l 0,-1.5625 c 0,-4.82006 -2.86276,-7.67698 -8.59961,-8.59376 l -0.78125,0 z m 67.96294,0 c -6.8111,0.91678 -10.16802,3.7737 -10.16802,8.59376 1.01239,6.77171 4.13392,10.16211 9.34762,10.16211 6.2543,-1.31048 9.375,-4.17325 9.375,-8.59961 l 0,-1.5625 c -1.4342,-5.73683 -4.297,-8.59376 -8.5546,-8.59376 z m 21.875,0 c -4.4658,0 -7.5879,2.85693 -9.4102,8.59376 1.0405,6.77171 4.1964,10.16211 9.4102,10.16211 6.2205,-1.31048 9.3418,-4.17325 9.3418,-8.59961 l 0,-1.5625 c 0,-4.82006 -2.8682,-7.67698 -8.5938,-8.59376 l -0.748,0 z m 22.5957,0 c -4.7863,0 -7.9467,3.12051 -9.3809,9.36916 0,4.8313 3.1322,7.94687 9.3809,9.38671 6.2542,-1.31048 9.3769,-4.17325 9.3769,-8.59961 l 0,-1.5625 c 0,-4.82006 -2.842,-7.67698 -8.5957,-8.59376 l -0.7812,0 z m -270.73833,22.66212 c -4.42636,0 -7.5142,2.85746 -9.30272,8.56053 0,4.82008 2.53622,8.2068 7.75,10.16408 7.31726,-0.65243 10.93358,-3.5152 10.93358,-8.59961 l 0,-1.56447 c 0,-4.39822 -3.1266,-7.26131 -9.38086,-8.56053 z m 22.66993,0 c -4.82569,0 -7.95424,3.12298 -9.38282,9.33788 0,4.04391 2.60998,7.1651 7.8125,9.38673 7.29477,-0.65243 10.97267,-3.5152 10.97267,-8.59961 l 0,-1.56447 c 0,-4.66256 -3.14809,-7.52566 -9.40235,-8.56053 z m 22.6211,0 c -4.42638,0 -7.51335,2.85746 -9.375,8.56053 0,4.82008 2.60826,8.2068 7.8164,10.16408 7.28915,-0.65243 10.93946,-3.5152 10.93946,-8.59961 l 0,-1.56447 c 0,-4.39822 -3.09849,-7.26131 -9.38086,-8.56053 z m 67.72656,0 c -4.81445,0 -7.94839,3.12298 -9.37695,9.33788 0,4.04391 2.60435,7.1651 7.8125,9.38673 7.29475,-0.65243 10.97265,-3.5152 10.97265,-8.59961 l 0,-1.56447 c 0,-4.66256 -3.15955,-7.52566 -9.4082,-8.56053 z m 22.6582,0 c -4.42636,0 -7.54883,2.85746 -9.3711,8.56053 0,4.82008 2.60436,8.2068 7.8125,10.16408 7.29477,-0.65243 10.93945,-3.5152 10.93945,-8.59961 l 0,-1.56447 c 0,-4.39822 -3.1266,-7.26131 -9.38085,-8.56053 z m 22.6289,0 c -4.42635,0 -7.54935,2.85746 -9.33789,8.56053 0,4.82008 2.60468,8.2068 7.77344,10.16408 7.3004,-0.65243 10.94531,-3.5152 10.94531,-8.59961 l 0,-1.56447 c 0,-4.39822 -3.12096,-7.26131 -9.38086,-8.56053 z m 67.14254,0 c -4.4319,0 -7.55345,2.85746 -9.34762,8.56053 0,4.82008 2.56922,8.2068 7.77732,10.16408 7.3004,-0.65243 10.9453,-3.5152 10.9453,-8.59961 l 0,-1.56447 c 0,-4.39822 -3.1207,-7.26131 -9.375,-8.56053 z m 22.6954,0 c -4.4658,0 -7.5879,2.85746 -9.4102,8.56053 0,4.82008 2.5985,8.2068 7.8066,10.16408 7.3005,-0.65243 10.9454,-3.5152 10.9454,-8.59961 l 0,-1.56447 c 0,-4.39822 -3.1213,-7.26131 -9.3418,-8.56053 z m 22.5957,0 c -4.7863,0 -7.9467,3.12298 -9.3809,9.33788 0,4.04391 2.6044,7.1651 7.8125,9.38673 7.3004,-0.65243 10.9453,-3.5152 10.9453,-8.59961 l 0,-1.56447 c 0,-4.66256 -3.1227,-7.52566 -9.3769,-8.56053 z m -270.73833,22.62695 c -4.42636,0 -7.5142,2.86818 -9.30272,8.59375 0,4.82006 2.53622,8.20678 7.75,10.16406 7.31726,-0.6468 10.93358,-3.51519 10.93358,-8.59961 l 0,-1.56445 c 0,-4.42637 -3.1266,-7.2889 -9.38086,-8.59375 z m 22.66993,0 c -4.82569,0 -7.95424,3.12243 -9.38282,9.37108 0,4.0439 2.60998,7.16512 7.8125,9.38673 7.29477,0 10.97267,-2.87403 10.97267,-8.59961 l 0,-1.56445 c 0,-4.42637 -3.14809,-7.2889 -9.40235,-8.59375 z m 22.6211,0 c -4.42638,0 -7.51335,2.86818 -9.375,8.59375 0,4.82006 2.60826,8.20678 7.8164,10.16406 7.28915,-0.6468 10.93946,-3.51519 10.93946,-8.59961 l 0,-1.56445 c 0,-4.42637 -3.09849,-7.2889 -9.38086,-8.59375 z m 67.72656,0 c -4.81445,0 -7.94839,3.12243 -9.37695,9.37108 0,4.0439 2.60435,7.16512 7.8125,9.38673 7.29475,0 10.97265,-2.87403 10.97265,-8.59961 l 0,-1.56445 c 0,-4.42637 -3.15955,-7.2889 -9.4082,-8.59375 z m 22.6582,0 c -4.42636,0 -7.54883,2.86818 -9.3711,8.59375 0,4.82006 2.60436,8.20678 7.8125,10.16406 7.29477,-0.6468 10.93945,-3.51519 10.93945,-8.59961 l 0,-1.56445 c 0,-4.42637 -3.1266,-7.2889 -9.38085,-8.59375 z m 22.6289,0 c -4.42635,0 -7.54935,2.86818 -9.33789,8.59375 0,4.82006 2.60468,8.20678 7.77344,10.16406 7.3004,-0.6468 10.94531,-3.51519 10.94531,-8.59961 l 0,-1.56445 c 0,-4.42637 -3.12096,-7.2889 -9.38086,-8.59375 z m 67.14254,0 c -4.4319,0 -7.55345,2.86818 -9.34762,8.59375 0,4.82006 2.56922,8.20678 7.77732,10.16406 7.3004,-0.6468 10.9453,-3.51519 10.9453,-8.59961 l 0,-1.56445 c 0,-4.42637 -3.1207,-7.2889 -9.375,-8.59375 z m 22.6954,0 c -4.4658,0 -7.5879,2.86818 -9.4102,8.59375 0,4.82006 2.5985,8.20678 7.8066,10.16406 7.3005,-0.6468 10.9454,-3.51519 10.9454,-8.59961 l 0,-1.56445 c 0,-4.42637 -3.1213,-7.2889 -9.3418,-8.59375 z m 22.5957,0 c -4.7863,0 -7.9467,3.12243 -9.3809,9.37108 0,4.0439 2.6044,7.16512 7.8125,9.38673 7.3004,0 10.9453,-2.87403 10.9453,-8.59961 l 0,-1.56445 c 0,-4.42637 -3.1227,-7.2889 -9.3769,-8.59375 z m -269.95708,22.65625 c -6.7717,1.30485 -10.08397,4.16817 -10.08397,8.56641 1.00675,6.77171 4.09458,10.16406 9.30272,10.16406 l 0.78125,0 c 4.82569,0 7.68848,-2.86277 8.59961,-8.59961 l 0,-1.56445 c 0,-4.03265 -2.8684,-6.87348 -8.59961,-8.56641 z m 22.66993,0 c -6.77734,1.17548 -10.16407,4.30285 -10.16407,9.35352 0,4.93816 3.13417,8.0721 9.38282,9.37695 l 0.78125,0 c 4.80881,0 7.70996,-2.86277 8.6211,-8.59961 l 0,-1.56445 c 0,-4.03265 -2.90115,-6.87348 -8.6211,-8.56641 z m 22.6211,0 c -6.73795,1.30485 -10.15625,4.16817 -10.15625,8.56641 0,6.11927 3.4183,9.50601 10.15625,10.16406 5.73121,-1.43421 8.59961,-4.30824 8.59961,-8.59961 l 0,-1.56445 c 0,-4.03265 -2.8684,-6.87348 -8.59961,-8.56641 z m 67.73241,0 c -6.77734,1.17548 -10.16405,4.30285 -10.16405,9.35352 0,4.93816 3.13391,8.0721 9.37695,9.37695 l 0.7871,0 c 4.80881,0 7.6762,-2.86277 8.6211,-8.59961 l 0,-1.56445 c 0,-4.03265 -2.89553,-6.87348 -8.6211,-8.56641 z m 22.68555,0 c -6.79983,1.30485 -10.18555,4.16817 -10.18555,8.56641 0,6.11927 3.38572,9.50601 10.18555,10.16406 5.69746,-1.43421 8.5664,-4.30824 8.5664,-8.59961 l 0,-1.56445 c 0,-4.03265 -2.86894,-6.87348 -8.5664,-8.56641 z m 22.5957,0 c -6.7717,1.30485 -10.11914,4.16817 -10.11914,8.56641 1.00676,6.77171 4.13536,10.16406 9.33789,10.16406 l 0.78125,0 c 4.82006,0 7.68847,-2.86277 8.59961,-8.59961 l 0,-1.56445 c 0,-4.03265 -2.86276,-6.87348 -8.59961,-8.56641 z m 67.18169,0 c -6.8111,1.30485 -10.16802,4.16817 -10.16802,8.56641 0,6.11927 3.35692,9.50601 10.16802,10.16406 5.6862,-1.43421 8.5546,-4.30824 8.5546,-8.59961 l 0,-1.56445 c 0,-4.03265 -2.8684,-6.87348 -8.5546,-8.56641 z m 22.623,0 c -6.7773,1.30485 -10.1582,4.16817 -10.1582,8.56641 1.0405,6.77171 4.1964,10.16406 9.4102,10.16406 l 0.748,0 c 4.8145,0 7.6433,-2.86277 8.5938,-8.59961 l 0,-1.56445 c 0,-4.03265 -2.8682,-6.87348 -8.5938,-8.56641 z m 22.6289,0 c -6.7773,1.17548 -10.1621,4.30285 -10.1621,9.35352 0,4.93816 3.1322,8.0721 9.3809,9.37695 l 0.7812,0 c 4.8145,0 7.679,-2.86277 8.5957,-8.59961 l 0,-1.56445 c 0,-4.03265 -2.842,-6.87348 -8.5957,-8.56641 z m -270.73828,22.625 c -6.7717,1.31048 -10.08397,4.17325 -10.08397,8.59961 0,6.12491 3.31227,9.50992 10.08397,10.16797 4.82569,0 7.68848,-2.86277 8.59961,-8.59961 l 0,-1.56836 c 0,-4.03265 -2.8684,-6.90105 -8.59961,-8.59961 z m 22.66993,0 c -5.21939,0 -8.6005,3.12682 -10.16407,9.38672 0,4.94379 3.13417,8.07038 9.38282,9.38086 l 0.78125,0 c 4.80881,0 7.70996,-2.86277 8.6211,-8.59961 l 0,-1.56836 c 0,-4.03265 -2.90115,-6.90105 -8.6211,-8.59961 z m 23.41016,0 c -7.29479,0.91678 -10.94531,3.78369 -10.94531,8.60938 0,6.11366 3.4183,9.49968 10.15625,10.14648 4.82006,0 7.68283,-2.86233 8.59961,-8.58789 0,-4.95505 -2.60805,-8.33444 -7.81055,-10.16797 z m 66.94335,0 c -5.21939,0 -8.57238,3.12682 -10.16405,9.38672 0,4.94379 3.13391,8.07038 9.37695,9.38086 l 0.7871,0 c 4.80881,0 7.6762,-2.86277 8.6211,-8.59961 l 0,-1.56836 c 0,-4.03265 -2.89553,-6.90105 -8.6211,-8.59961 z m 23.43945,0 c -7.28915,0.91678 -10.93945,3.78369 -10.93945,8.60938 0,6.11366 3.38572,9.49968 10.18555,10.14648 4.78631,0 7.66089,-2.86233 8.5664,-8.58789 0,-4.95505 -2.59874,-8.33444 -7.8125,-10.16797 z m 21.8418,0 c -6.7717,1.31048 -10.11914,4.17325 -10.11914,8.59961 0,6.12491 3.34744,9.50992 10.11914,10.16797 4.82006,0 7.68847,-2.86277 8.59961,-8.59961 l 0,-1.56836 c 0,-4.03265 -2.86276,-6.90105 -8.59961,-8.59961 z m 67.92379,0 c -7.2891,0.91678 -10.91012,3.78369 -10.91012,8.60938 0,6.11366 3.35692,9.49968 10.16802,10.14648 4.775,0 7.6435,-2.86233 8.5546,-8.58789 0,-4.95505 -2.6043,-8.33444 -7.8125,-10.16797 z m 21.8809,0 c -6.7773,1.31048 -10.1582,4.17325 -10.1582,8.59961 0,6.12491 3.3809,9.50992 10.1582,10.16797 4.8145,0 7.6433,-2.86277 8.5938,-8.59961 l 0,-1.56836 c 0,-4.03265 -2.8682,-6.90105 -8.5938,-8.59961 z m 22.6289,0 c -5.2137,0 -8.6042,3.12682 -10.1621,9.38672 0,4.94379 3.1322,8.07038 9.3809,9.38086 l 0.7812,0 c 4.8145,0 7.679,-2.86277 8.5957,-8.59961 l 0,-1.56836 c 0,-4.03265 -2.842,-6.90105 -8.5957,-8.59961 z M 605.97028,533.8689 c -4.94379,0 -8.29545,2.83349 -10.08397,8.57031 0,6.11929 3.31227,9.50578 10.08397,10.15821 4.82569,0 7.68848,-2.85692 8.59961,-8.59375 l 0,-1.56446 c 0,-3.8808 -2.8684,-6.73115 -8.59961,-8.57031 z m 22.66993,0 c -5.60748,0 -8.98858,3.3968 -10.16407,10.13477 0,4.82005 3.38673,7.6826 10.16407,8.59375 4.80881,0 7.70996,-2.85692 8.6211,-8.59375 l 0,-1.56446 c 0,-3.8808 -2.90115,-6.73115 -8.6211,-8.57031 z m 90.35351,0 c -5.60185,0 -8.96045,3.3968 -10.16405,10.13477 0,4.82005 3.38671,7.6826 10.16405,8.59375 4.80881,0 7.6762,-2.85692 8.6211,-8.59375 l 0,-1.56446 c 0,-3.8808 -2.89553,-6.73115 -8.6211,-8.57031 z m 45.28125,0 c -4.91568,0 -8.3306,2.83349 -10.11914,8.57031 0,6.11929 3.34744,9.50578 10.11914,10.15821 4.82006,0 7.68847,-2.85692 8.59961,-8.59375 l 0,-1.56446 c 0,-3.8808 -2.86276,-6.73115 -8.59961,-8.57031 z m 89.80469,0 c -4.9494,0 -8.3359,2.83349 -10.1582,8.57031 0,6.11929 3.3809,9.50578 10.1582,10.15821 4.8145,0 7.6433,-2.85692 8.5938,-8.59375 l 0,-1.56446 c 0,-3.8808 -2.8682,-6.73115 -8.5938,-8.57031 z m 22.6289,0 c -5.5681,0 -8.9866,3.3968 -10.1621,10.13477 0,4.82005 3.3848,7.6826 10.1621,8.59375 4.8145,0 7.679,-2.85692 8.5957,-8.59375 l 0,-1.56446 c 0,-3.8808 -2.842,-6.73115 -8.5957,-8.57031 z m -225.44335,0.0113 c -6.73797,1.26594 -10.16407,4.12926 -10.16407,8.56687 0,6.11929 3.4261,9.49405 10.16407,10.14649 4.82006,0 7.68846,-2.86449 8.59961,-8.5957 -0.91115,-6.73233 -3.77955,-10.11719 -8.59961,-10.11719 z m 22.65625,0 c -6.76609,1.26546 -10.12304,4.12879 -10.12304,8.5664 0,6.11929 3.35695,9.49405 10.12304,10.14649 4.82568,0 7.69408,-2.86449 8.59961,-8.5957 -0.90553,-6.73234 -3.77393,-10.11719 -8.59961,-10.11719 z m 21.85546,0 c -6.7717,1.26546 -10.13475,4.12879 -10.13475,8.5664 0,6.11929 3.36305,9.49405 10.13475,10.14649 4.82006,0 7.67675,-2.86449 8.5879,-8.5957 -0.91115,-6.73234 -3.76784,-10.11719 -8.5879,-10.11719 z m 45.90625,0 c -6.81106,1.26546 -10.19725,4.12879 -10.19725,8.5664 0,6.11929 3.38619,9.49405 10.19725,10.14649 4.78631,0 7.64964,-2.86449 8.56641,-8.5957 -0.91677,-6.73234 -3.7801,-10.11719 -8.56641,-10.11719 z m 89.76559,0 c -6.7998,1.26546 -10.16207,4.12879 -10.16207,8.5664 0,6.11929 3.36227,9.49405 10.16207,10.14649 4.7864,0 7.6494,-2.86449 8.5606,-8.5957 -0.9112,-6.73234 -3.7742,-10.11719 -8.5606,-10.11719 z m -225.47848,22.61766 c -5.55685,0 -8.9535,3.39798 -10.08397,10.16406 1.78852,5.73684 4.64997,8.5996 8.51952,8.5996 l 1.56445,0 c 4.82569,0 7.68848,-2.86276 8.59961,-8.5996 l 0,-1.56445 c 0,-3.90892 -2.8684,-6.76608 -8.59961,-8.59961 z m 22.66993,0 c -6.77734,1.57481 -10.16407,4.96155 -10.16407,10.16406 1.82229,5.73684 4.72422,8.5996 8.59375,8.5996 l 1.57032,0 c 4.80881,0 7.70996,-2.86276 8.6211,-8.5996 l 0,-1.56445 c 0,-3.90892 -2.90115,-6.76608 -8.6211,-8.59961 z m 90.35351,0 c -6.77734,1.57481 -10.16405,4.96155 -10.16405,10.16406 1.8279,5.73684 4.69021,8.5996 8.58789,8.5996 l 1.57616,0 c 4.80881,0 7.6762,-2.86276 8.6211,-8.5996 l 0,-1.56445 c 0,-3.90892 -2.89553,-6.76608 -8.6211,-8.59961 z m 45.28125,0 c -5.59059,0 -8.98864,3.39798 -10.11914,10.16406 1.78854,5.73684 4.65726,8.5996 8.56054,8.5996 l 1.5586,0 c 4.82006,0 7.68847,-2.86276 8.59961,-8.5996 l 0,-1.56445 c 0,-3.90892 -2.86276,-6.76608 -8.59961,-8.59961 z m 89.80469,0 c -5.6018,0 -8.9883,3.39798 -10.1582,10.16406 1.8223,5.73684 4.6922,8.5996 8.5898,8.5996 l 1.5684,0 c 4.8145,0 7.6433,-2.86276 8.5938,-8.5996 l 0,-1.56445 c 0,-3.90892 -2.8682,-6.76608 -8.5938,-8.59961 z m 22.6289,0 c -6.7773,1.57481 -10.1621,4.96155 -10.1621,10.16406 1.8279,5.73684 4.6961,8.5996 8.5938,8.5996 l 1.5683,0 c 4.8145,0 7.679,-2.86276 8.5957,-8.5996 l 0,-1.56445 c 0,-3.90892 -2.842,-6.76608 -8.5957,-8.59961 z m -225.44335,0.007 c -4.9438,0 -8.3024,2.8684 -10.16407,8.5996 1.07988,6.76608 3.91399,10.15235 8.63282,10.15235 l 1.53125,0 c 4.82006,0 7.68846,-2.86841 8.59961,-8.59961 -0.91115,-6.77171 -3.77955,-10.15234 -8.59961,-10.15234 z m 22.65625,0 c -4.91005,0 -8.33452,2.8684 -10.12304,8.5996 1.00675,6.76608 3.87374,10.15235 8.56445,10.15235 l 1.55859,0 c 4.82568,0 7.69408,-2.86841 8.59961,-8.59961 -0.90553,-6.77171 -3.77393,-10.15234 -8.59961,-10.15234 z m 21.85546,0 c -4.9213,0 -8.3406,2.8684 -10.13475,8.5996 1.01236,6.76608 3.87936,10.15235 8.56445,10.15235 l 1.5703,0 c 4.82006,0 7.67675,-2.86841 8.5879,-8.59961 -0.91115,-6.77171 -3.76784,-10.15234 -8.5879,-10.15234 z m 45.90625,0 c -4.97754,0 -8.36935,2.8684 -10.19725,8.5996 1.0405,6.76608 3.91475,10.15235 8.60545,10.15235 l 1.5918,0 c 4.78631,0 7.64964,-2.86841 8.56641,-8.59961 -0.91677,-6.77171 -3.7801,-10.15234 -8.56641,-10.15234 z m 89.76559,0 c -4.9831,0 -8.37354,2.8684 -10.16207,8.5996 1.01238,6.76608 3.87397,10.15235 8.57027,10.15235 l 1.5918,0 c 4.7864,0 7.6494,-2.86841 8.5606,-8.59961 -0.9112,-6.77171 -3.7742,-10.15234 -8.5606,-10.15234 z m -202.80855,22.65461 c -4.53323,0 -7.94808,3.13276 -10.16407,9.34765 1.42858,6.25426 4.29677,9.38085 8.59375,9.38085 l 0.78907,0 c 6.25426,0 9.40235,-3.12659 9.40235,-9.38085 l 0,-0.7832 c 0,-3.9033 -2.90115,-6.76467 -8.6211,-8.56445 z m 90.35351,0 c -4.5276,0 -7.94245,3.13276 -10.16405,9.34765 1.42856,6.25426 4.29651,9.38085 8.58789,9.38085 l 0.78906,0 c 6.24865,0 9.4082,-3.12659 9.4082,-9.38085 l 0,-0.7832 c 0,-3.9033 -2.89553,-6.76467 -8.6211,-8.56445 z m 135.08594,0 c -6.7773,1.57481 -10.1582,4.92075 -10.1582,10.1289 1.8223,5.73121 4.6922,8.5996 8.5898,8.5996 l 1.5684,0 c 4.8145,0 7.6433,-2.86839 8.5938,-8.5996 l 0,-1.56445 c 0,-3.9033 -2.8682,-6.76467 -8.5938,-8.56445 z m 22.6289,0 c -4.5613,0 -7.9405,3.13276 -10.1621,9.34765 1.4342,6.25426 4.2968,9.38085 8.5938,9.38085 l 0.7871,0 c 6.2542,0 9.3769,-3.12659 9.3769,-9.38085 l 0,-0.7832 c 0,-3.9033 -2.842,-6.76467 -8.5957,-8.56445 z m -226.2285,0.002 c -6.24865,1.79415 -9.375,4.92154 -9.375,9.3535 1.33296,6.24865 4.16685,9.36915 8.62695,9.36915 l 1.5293,0 c 4.82006,0 7.68283,-2.85692 8.59961,-8.59375 -0.7818,-6.77171 -3.90839,-10.1289 -9.38086,-10.1289 z m 22.66211,0 c -6.25429,1.79415 -9.3418,4.92154 -9.3418,9.3535 1.26546,6.24865 4.1342,9.36915 8.56055,9.36915 l 1.5625,0 c 4.81442,0 7.68284,-2.85692 8.5996,-8.59375 -0.78179,-6.77171 -3.88025,-10.1289 -9.38085,-10.1289 z m 21.84375,0 c -6.25429,1.79415 -9.33595,4.92154 -9.33595,9.3535 1.26547,6.24865 4.12835,9.36915 8.5547,9.36915 l 1.5703,0 c 4.82006,0 7.68285,-2.85692 8.59961,-8.59375 -0.78741,-6.77171 -3.88245,-10.1289 -9.38866,-10.1289 z m 45.8789,0 c -6.2149,1.79415 -9.3711,4.92154 -9.3711,9.3535 1.29921,6.24865 4.16177,9.36915 8.59375,9.36915 l 1.5918,0 c 4.78631,0 7.66089,-2.85692 8.5664,-8.59375 -0.74804,-6.77171 -3.90836,-10.1289 -9.38085,-10.1289 z m 89.77144,0 c -6.2205,1.79415 -9.34762,4.92154 -9.34762,9.3535 1.2711,6.24865 4.13422,9.36915 8.56052,9.36915 l 1.6075,0 c 4.775,0 7.6435,-2.85692 8.5546,-8.59375 -0.7817,-6.77171 -3.9081,-10.1289 -9.375,-10.1289 z" style="fill:#46555f;fill-opacity:1;fill-rule:nonzero;stroke:none"/>
  </g>
<script xmlns=""/></svg>