<?xml version="1.0" encoding="UTF-8"?>
<!-- Generator: Adobe Illustrator 21.0.0, SVG Export Plug-In . SVG Version: 6.00 Build 0)  -->
<svg version="1.1" id="Ebene_1" xmlns="http://www.w3.org/2000/svg" xmlns:xlink="http://www.w3.org/1999/xlink" x="0px" y="0px" viewBox="0 0 549.2 232" style="enable-background:new 0 0 549.2 232;" xml:space="preserve">
<style type="text/css">
	.st0{fill:#E20015;}
	.st1{fill:#575757;}
</style>
<g>
	<g>
		<g>
			<path class="st0" d="M237.8,118.4c0,0,8.8-3,8.8-13c0-11.7-8.3-17.5-19.7-17.5H197v63.6h32.5c10,0,19.8-7,19.8-17.7     C249.3,121.1,237.8,118.5,237.8,118.4z M212.6,101.1h11.6c3.6,0,6,2.4,6,6c0,2.8-2.2,5.8-6.3,5.8h-11.4V101.1z M224.3,138.2     h-11.6v-12.5H224c5.7,0,8.4,2.5,8.4,6.2C232.4,136.5,229,138.2,224.3,138.2z"/>
			<path class="st0" d="M283.7,86.3c-18.4,0-29.2,14.7-29.2,33.3c0,18.7,10.8,33.3,29.2,33.3c18.5,0,29.2-14.6,29.2-33.3     C312.9,101,302.2,86.3,283.7,86.3z M283.7,137.7c-9,0-13.5-8.1-13.5-18.1c0-10,4.5-18,13.5-18s13.6,8.1,13.6,18     C297.3,129.6,292.7,137.7,283.7,137.7z"/>
			<path class="st0" d="M346.8,112.8l-2.2-0.5c-5.4-1.1-9.7-2.5-9.7-6.4c0-4.2,4.1-5.9,7.7-5.9c5.3,0,10,2.6,13,5.9l9.9-9.8     c-4.5-5.1-11.8-10-23.2-10c-13.4,0-23.5,7.5-23.5,20c0,11.4,8.2,17,18.2,19.1l2.2,0.5c8.3,1.7,11.4,3,11.4,7     c0,3.8-3.4,6.3-8.6,6.3c-6.2,0-11.8-2.7-16.1-8.2l-10.1,10c5.6,6.7,12.7,11.9,26.4,11.9c11.9,0,24.6-6.8,24.6-20.7     C366.9,117.5,355.9,114.7,346.8,112.8z"/>
			<path class="st0" d="M402.3,137.7c-7,0-14.3-5.8-14.3-18.5c0-11.3,6.8-17.6,13.9-17.6c5.6,0,8.9,2.6,11.5,7.1l12.8-8.5     c-6.4-9.7-14-13.8-24.5-13.8c-19.2,0-29.6,14.9-29.6,32.9c0,18.9,11.5,33.7,29.4,33.7c12.6,0,18.6-4.4,25.1-13.8l-12.9-8.7     C411.1,134.7,408.3,137.7,402.3,137.7z"/>
			<polygon class="st0" points="468.9,87.8 468.9,111.2 449.6,111.2 449.6,87.8 432.9,87.8 432.9,151.4 449.6,151.4 449.6,126.3      468.9,126.3 468.9,151.4 485.6,151.4 485.6,87.8    "/>
		</g>
	</g>
	<g id="_x38_7_x2F_87_x2F_87__x7C__0_x2F_0_x2F_0">
		<g>
			<path class="st1" d="M100.8,71.5c-26.6,0-48.2,21.6-48.2,48.2s21.6,48.2,48.2,48.2c26.6,0,48.2-21.6,48.2-48.2     S127.4,71.5,100.8,71.5z M100.8,163.4c-24.1,0-43.7-19.6-43.7-43.7S76.7,76,100.8,76c24.1,0,43.7,19.6,43.7,43.7     S124.9,163.4,100.8,163.4z"/>
			<path class="st1" d="M120.7,89.6h-3.3v16.5H84.3V89.6h-3.4c-9.7,6.5-16.2,17.5-16.2,30.1c0,12.6,6.5,23.6,16.2,30.1h3.4v-16.5     h33.1v16.5h3.3c9.8-6.5,16.2-17.5,16.2-30.1C136.9,107.1,130.5,96.1,120.7,89.6z M79.7,143.3c-6.7-5.9-10.6-14.4-10.6-23.6     c0-9.2,3.9-17.7,10.6-23.6V143.3z M117.4,128.7H84.3v-18.1h33.1C117.4,110.7,117.4,128.7,117.4,128.7z M121.9,143.2v-10l0,0     v-27.1l0,0v-10c6.6,5.9,10.5,14.4,10.5,23.5C132.4,128.8,128.5,137.3,121.9,143.2z"/>
		</g>
	</g>
</g>
<script xmlns=""/></svg>