<?xml version="1.0" encoding="UTF-8" standalone="no"?>
<svg
   xmlns:dc="http://purl.org/dc/elements/1.1/"
   xmlns:cc="http://creativecommons.org/ns#"
   xmlns:rdf="http://www.w3.org/1999/02/22-rdf-syntax-ns#"
   xmlns:svg="http://www.w3.org/2000/svg"
   xmlns="http://www.w3.org/2000/svg"
   id="svg11723"
   version="1.1"
   viewBox="0 0 34.32555 8.0711699"
   height="8.0711699mm"
   width="34.32555mm">
  <defs
     id="defs11717">
    <clipPath
       id="clip5">
      <path
         id="path1222"
         d="M 54,43.871094 H 76 V 65 H 54 Z m 0,0" />
    </clipPath>
    <clipPath
       id="clip4">
      <path
         id="path1219"
         d="m 78,47 h 73.36328 V 66.800781 H 78 Z m 0,0" />
    </clipPath>
  </defs>
  <metadata
     id="metadata11720">
    <rdf:RDF>
      <cc:Work
         rdf:about="">
        <dc:format>image/svg+xml</dc:format>
        <dc:type
           rdf:resource="http://purl.org/dc/dcmitype/StillImage" />
        <dc:title></dc:title>
      </cc:Work>
    </rdf:RDF>
  </metadata>
  <g
     transform="translate(-56.920557,-82.809653)"
     id="layer1">
    <g
       clip-path="url(#clip4)"
       id="g2857"
       style="clip-rule:nonzero"
       transform="matrix(0.35277777,0,0,0.35277777,37.867802,67.319126)">
      <path
         style="fill:#211e1e;fill-opacity:1;fill-rule:nonzero;stroke:none"
         d="m 81.378906,49.234375 v 6.238281 c 0,0.65625 -0.335937,0.761719 -0.660156,0.863282 v 0.222656 h 2.875 v -0.222656 c -0.324219,-0.101563 -0.660156,-0.207032 -0.660156,-0.863282 v -6.238281 c 0,-0.378906 0.117187,-0.46875 0.609375,-0.46875 1.347656,0 2.007812,0.02734 2.488281,0.777344 L 86.199219,49.4375 85.65625,47.84375 h -7.015625 l -0.542969,1.59375 0.167969,0.105469 c 0.582031,-0.738281 1.039063,-0.777344 2.5,-0.777344 0.496094,0 0.613281,0.08984 0.613281,0.46875 z m 3.28125,0.890625 c 0.421875,0.117188 0.648438,0.21875 0.648438,0.867188 v 4.480468 c 0,0.65625 -0.226563,0.761719 -0.648438,0.863282 v 0.222656 h 5.433594 l 0.617188,-1.554688 -0.167969,-0.121094 C 90,55.597656 89.429688,55.769531 88.675781,55.769531 h -1.398437 c -0.441406,0 -0.542969,-0.01563 -0.542969,-0.445312 v -1.867188 h 1.699219 c 0.660156,0 0.761718,0.15625 0.867187,0.546875 h 0.257813 v -1.867187 h -0.257813 c -0.105469,0.390625 -0.207031,0.554687 -0.867187,0.554687 H 86.734375 V 51.125 c 0,-0.324219 0.101563,-0.429688 0.542969,-0.429688 h 1.191406 c 0.765625,0 1.171875,0.195313 1.753906,0.820313 l 0.167969,-0.121094 -0.546875,-1.492187 h -5.183594 z m 6.988282,0.765625 1.660156,2.347656 -1.570313,2.234375 c -0.480469,0.671875 -0.765625,0.761719 -1.207031,0.863282 v 0.222656 h 2.515625 v -0.222656 c -0.476563,-0.08984 -0.6875,-0.273438 -0.363281,-0.777344 l 1.101562,-1.71875 1.152344,1.667968 c 0.429688,0.605469 -0.02344,0.777344 -0.414062,0.828126 v 0.222656 h 4.550781 v -0.222656 c -0.453125,-0.07813 -0.660157,-0.234376 -0.425781,-0.851563 l 0.296874,-0.777344 h 2.722658 l 0.28516,0.777344 c 0.18359,0.503906 0.11718,0.773437 -0.41407,0.851563 v 0.222656 h 2.80469 v -0.222656 c -0.32812,-0.101563 -0.625,-0.375 -0.76953,-0.75 l -2.16406,-5.683594 h -1.480472 l -2.074219,5.292968 c -0.21875,0.546876 -0.421875,0.808594 -0.640625,0.960938 -0.167969,-0.113281 -0.324219,-0.273438 -0.539063,-0.570312 L 94.855469,53 96.328125,50.917969 C 96.714844,50.363281 97.042969,50.242188 97.425781,50.125 V 49.902344 H 95.058594 V 50.125 c 0.492187,0.03906 0.632812,0.3125 0.347656,0.738281 L 94.375,52.386719 93.449219,50.992188 C 93.058594,50.425781 93.347656,50.195312 93.773438,50.125 V 49.902344 H 90.621094 V 50.125 c 0.441406,0.117188 0.660156,0.25 1.027344,0.765625 z m 8.683592,0.167969 1.0625,2.90625 h -2.171874 z m 4.61719,5.5 c 0,-0.105469 0.10547,-0.324219 0.23437,-0.324219 0.29688,0.144531 0.80469,0.441406 1.73829,0.441406 1.57031,0 2.67187,-0.777343 2.67187,-2.105469 0,-1.242187 -0.6875,-1.746093 -2.01172,-2.042968 L 106.375,52.253906 c -0.68359,-0.15625 -0.91016,-0.347656 -0.91016,-0.78125 0,-0.488281 0.39063,-0.816406 1.25,-0.816406 0.95704,0 1.70704,0.457031 2.25391,1.078125 l 0.16797,-0.113281 -0.48828,-1.71875 h -0.31641 c 0,0.148437 -0.0625,0.300781 -0.1914,0.300781 -0.28907,-0.152344 -0.73047,-0.402344 -1.48047,-0.402344 -1.34766,0 -2.39844,0.699219 -2.39844,1.972657 0,0.972656 0.58203,1.582031 1.85156,1.867187 l 1.14453,0.257813 c 0.76172,0.167968 1.03516,0.445312 1.03516,0.921874 0,0.664063 -0.52734,1.011719 -1.39844,1.011719 -1.21875,0 -1.99609,-0.636719 -2.63281,-1.375 l -0.16797,0.113281 0.53125,1.988282 z m -24.296876,1.621094 c 0.40625,0.117187 0.730468,0.222656 0.730468,0.871093 v 6.535157 c 0,0.664062 -0.324218,0.765624 -0.730468,0.867187 v 0.222656 h 3.007812 V 66.453125 C 83.257812,66.351562 82.9375,66.25 82.9375,65.585938 v -6.535157 c 0,-0.648437 0.320312,-0.753906 0.722656,-0.871093 v -0.214844 h -3.007812 z m 8.261718,2.066406 c 0.386719,0.113281 0.609376,0.214844 0.609376,0.863281 v 2.726563 h -0.04297 l -3.339844,-3.8125 h -1.960937 v 0.222656 c 0.386718,0.164062 0.648437,0.292968 0.648437,0.863281 v 4.476563 c 0,0.621093 -0.21875,0.765624 -0.648437,0.867187 v 0.222656 h 2.21875 v -0.222656 c -0.351563,-0.101563 -0.6875,-0.246094 -0.6875,-0.867187 V 61.722656 H 85.75 l 4.421875,5.042969 h 0.230469 v -5.65625 c 0,-0.648437 0.324218,-0.75 0.585937,-0.863281 v -0.222656 h -2.074219 z m 5.796876,2.394531 -1.207032,-0.269531 c -0.6875,-0.15625 -0.90625,-0.347656 -0.90625,-0.78125 0,-0.492188 0.386719,-0.816406 1.238282,-0.816406 0.964843,0 1.714843,0.457031 2.261718,1.078124 l 0.167969,-0.117187 -0.496094,-1.710937 h -0.308593 c 0,0.144531 -0.06641,0.296874 -0.195313,0.296874 -0.285156,-0.152343 -0.722656,-0.398437 -1.480469,-0.398437 -1.347656,0 -2.394531,0.695313 -2.394531,1.96875 0,0.972656 0.582031,1.582031 1.851563,1.867187 l 1.144531,0.257813 c 0.765625,0.167969 1.035156,0.445313 1.035156,0.917969 0,0.664062 -0.535156,1.015625 -1.398437,1.015625 -1.21875,0 -2,-0.636719 -2.632813,-1.375 l -0.167969,0.113281 0.53125,1.988281 h 0.324219 c 0,-0.101562 0.101563,-0.324219 0.230469,-0.324219 0.300781,0.140626 0.804687,0.4375 1.738281,0.4375 1.566406,0 2.671875,-0.773437 2.671875,-2.101562 0,-1.242188 -0.6875,-1.746094 -2.007812,-2.046875 z m 2.398437,-2.617187 -0.53125,1.710937 0.164063,0.117187 c 0.714843,-0.945312 0.910156,-1.035156 1.855468,-1.035156 0.324219,0 0.429688,0.02344 0.429688,0.425782 v 4.34375 c 0,0.664062 -0.195313,0.765624 -0.726563,0.867187 v 0.222656 h 2.851559 V 66.453125 C 100.63672,66.351562 100.42578,66.25 100.42578,65.585938 v -4.34375 c 0,-0.402344 0.10547,-0.425782 0.42969,-0.425782 0.94531,0 1.19531,0.08984 1.90625,1.035156 l 0.16797,-0.117187 -0.52735,-1.710937 z m 11.554685,4.683593 c -0.40625,-0.652343 -0.82031,-0.9375 -1.30078,-1.050781 v -0.04297 c 1.14063,-0.179687 1.78906,-0.777343 1.78906,-1.75 0,-1.292969 -1.03515,-1.839843 -2.70703,-1.839843 h -3.41406 v 0.222656 c 0.42969,0.113281 0.64844,0.214844 0.64844,0.863281 v 4.476563 c 0,0.664062 -0.21875,0.765624 -0.64844,0.867187 v 0.222656 h 2.78906 V 66.453125 C 105.41797,66.351562 105.14844,66.25 105.14844,65.585938 v -1.660157 h 0.6875 c 0.80078,0 0.91797,0.324219 1.4375,1.410157 0.42578,0.894531 1,1.453124 2.07812,1.453124 0.53907,0 0.76172,-0.101562 0.98047,-0.214843 v -0.1875 c -0.87109,-0.125 -1.15234,-0.839844 -1.66797,-1.679688 z m -2.375,-1.558593 h -1.14062 v -1.761719 c 0,-0.425781 0.10156,-0.546875 0.42187,-0.546875 h 0.74219 c 0.80469,0 1.26953,0.3125 1.26953,1.089844 0,0.816406 -0.52734,1.21875 -1.29297,1.21875 z m 8.26953,-2.902344 c 0.33985,0.07422 0.66016,0.214844 0.66016,0.863281 v 3.285156 c 0,1.085938 -0.41406,1.566407 -1.64453,1.566407 -1.3125,0 -1.77734,-0.480469 -1.77734,-1.566407 v -3.285156 c 0,-0.648437 0.25,-0.789063 0.64843,-0.863281 v -0.222656 h -2.72265 v 0.222656 c 0.39843,0.05859 0.66015,0.214844 0.66015,0.863281 v 3.386719 c 0,1.777344 1.54297,2.292968 2.9961,2.292968 1.62109,0 2.77734,-0.539062 2.77734,-2.394531 v -3.285156 c 0,-0.648437 0.19141,-0.773437 0.59375,-0.863281 v -0.222656 h -2.19141 z m 6.89844,4.09375 -1.91797,-4.316406 h -2.38672 v 0.222656 c 0.42969,0.113281 0.64844,0.214844 0.64844,0.863281 v 4.476563 c 0,0.585937 -0.24609,0.738281 -0.64844,0.867187 v 0.222656 h 2.11719 v -0.222656 c -0.4414,-0.113281 -0.63672,-0.28125 -0.63672,-0.867187 v -4.175782 l 2.39453,5.371094 h 0.1836 l 2.33203,-5.371094 v 4.175782 c 0,0.664062 -0.28125,0.777343 -0.60938,0.867187 v 0.222656 h 2.72657 V 66.453125 C 125.23047,66.351562 125.00781,66.25 125.00781,65.585938 v -4.476563 c 0,-0.648437 0.22266,-0.75 0.65235,-0.863281 v -0.222656 h -2.34766 z m 8.74219,1.542968 h -1.40235 c -0.4414,0 -0.54296,-0.01172 -0.54296,-0.4375 v -1.867187 h 1.69921 c 0.66016,0 0.76172,0.15625 0.86719,0.539063 h 0.25781 V 62.25 h -0.25781 c -0.10547,0.390625 -0.20703,0.558594 -0.86719,0.558594 h -1.69921 v -1.566406 c 0,-0.324219 0.10156,-0.425782 0.54296,-0.425782 h 1.19532 c 0.76172,0 1.16015,0.191406 1.75,0.816406 l 0.16797,-0.121093 -0.54688,-1.488281 h -5.1875 v 0.222656 c 0.42969,0.113281 0.64844,0.214844 0.64844,0.863281 v 4.476563 c 0,0.664062 -0.21875,0.765624 -0.64844,0.867187 v 0.222656 h 5.43359 l 0.6211,-1.554687 L 132.0625,65 c -0.54297,0.714844 -1.11719,0.882812 -1.86328,0.882812 z m 6.92187,-5.636718 c 0.38672,0.113281 0.60938,0.214844 0.60938,0.863281 v 2.726563 h -0.0391 l -3.34375,-3.8125 h -1.96094 v 0.222656 c 0.39062,0.164062 0.64844,0.292968 0.64844,0.863281 v 4.476563 c 0,0.621093 -0.21875,0.765624 -0.64844,0.867187 v 0.222656 h 2.22265 v -0.222656 c -0.35546,-0.101563 -0.6914,-0.246094 -0.6914,-0.867187 v -3.863282 h 0.0391 l 4.42188,5.042969 h 0.23437 v -5.65625 c 0,-0.648437 0.32422,-0.75 0.58203,-0.863281 v -0.222656 h -2.07422 z m 2.6836,-0.222656 -0.53125,1.710937 0.16797,0.117187 c 0.71093,-0.945312 0.91015,-1.035156 1.85546,-1.035156 0.32032,0 0.42579,0.02344 0.42579,0.425782 v 4.34375 c 0,0.664062 -0.19532,0.765624 -0.72266,0.867187 v 0.222656 h 2.85156 V 66.453125 C 143.33203,66.351562 143.125,66.25 143.125,65.585938 v -4.34375 c 0,-0.402344 0.10156,-0.425782 0.42578,-0.425782 0.94922,0 1.19141,0.08984 1.91016,1.035156 l 0.16406,-0.117187 -0.53125,-1.710937 z m 9.49218,2.617187 -1.20312,-0.269531 c -0.6875,-0.15625 -0.91406,-0.347656 -0.91406,-0.78125 0,-0.492188 0.39062,-0.816406 1.24609,-0.816406 0.96094,0 1.71094,0.457031 2.25781,1.078124 l 0.16797,-0.117187 -0.49609,-1.710937 h -0.3086 c 0,0.144531 -0.0625,0.296874 -0.1914,0.296874 -0.28516,-0.152343 -0.72656,-0.398437 -1.48047,-0.398437 -1.34766,0 -2.39453,0.695313 -2.39453,1.96875 0,0.972656 0.57812,1.582031 1.84765,1.867187 l 1.14063,0.257813 c 0.76562,0.167969 1.03906,0.445313 1.03906,0.917969 0,0.664062 -0.53125,1.015625 -1.39844,1.015625 -1.21875,0 -2,-0.636719 -2.6289,-1.375 l -0.17188,0.113281 0.53125,1.988281 h 0.32422 c 0,-0.101562 0.10156,-0.324219 0.23438,-0.324219 0.29687,0.140626 0.80078,0.4375 1.73828,0.4375 1.5664,0 2.67187,-0.773437 2.67187,-2.101562 0,-1.242188 -0.6914,-1.746094 -2.01172,-2.046875"
         id="path2855" />
    </g>
    <g
       clip-path="url(#clip5)"
       id="g2861"
       style="clip-rule:nonzero"
       transform="matrix(0.35277777,0,0,0.35277777,37.867802,67.319126)">
      <path
         style="fill:#eb1923;fill-opacity:1;fill-rule:nonzero;stroke:none"
         d="M 74.039062,50.378906 V 47.8125 h -4.113281 l -0.515625,2.585938 h 1.476563 l -0.476563,2.382812 h -1.480468 l -0.511719,2.578125 c -0.03906,0.175781 -0.06641,0.300781 -0.08594,0.425781 -0.121093,0.785156 0.226563,0.746094 1.332031,0.746094 l -0.507812,2.539062 h -1.9375 c -1.828125,0 -3.320312,-0.01953 -2.933594,-1.890624 0.0625,-0.296876 0.136719,-0.578126 0.1875,-0.855469 l 0.695313,-3.542969 h -1.425781 l 0.476562,-2.382812 h 1.421875 L 66.15625,47.8125 h -1.328125 v -3.902344 h -4.925781 v 7.945313 h -5.894532 c 0.144532,2.050781 1.96875,2.351562 2.632813,3.816406 0.457031,1.007813 0.855469,2.777344 2.191406,2.792969 1.023438,0.01172 1.023438,-1.324219 2.339844,-1.324219 1.316406,0 1.902344,2.5 3.070313,4.558594 0.878906,1.617187 2.335937,2.699219 3.65625,2.792969 1.082031,0.07422 1.609374,-0.292969 1.609374,-0.292969 -0.292968,-0.589844 -0.4375,-1.171875 -0.4375,-2.058594 0,-1.324219 1.023438,-2.644531 2.191407,-3.527344 1.609375,-1.179687 3.367187,-1.621093 3.949219,-1.765625 v -4.117187 c 0,0 -1.171876,-0.625 -1.171876,-2.351563 z m -6.707031,6.152344 1.726563,-8.71875 h -1.992188 l -1.730468,8.71875 z M 69.59375,45.054688 h -1.992188 l -0.382812,1.929687 h 1.992188 l 0.382812,-1.929687"
         id="path2859" />
    </g>
  </g>
</svg>
