<?xml version="1.0" encoding="UTF-8" standalone="no"?>
<!-- Created with Inkscape (http://www.inkscape.org/) -->
<svg
   xmlns:svg="http://www.w3.org/2000/svg"
   xmlns="http://www.w3.org/2000/svg"
   version="1.0"
   width="743.3858"
   height="621.14172"
   id="svg2453">
  <defs
     id="defs2455"><clipPath
   id="clp9">
<path
   d="M 0,183.78 L 0,0 L 221.69,0 L 221.69,183.78"
   id="path2797" />

</clipPath>
<clipPath
   id="clp8">
<path
   d="M 0,183.78 L 0,0 L 221.69,0 L 221.69,183.78"
   id="path2787" />

</clipPath>















<clipPath
   id="clipPath3264">
<path
   d="M 0,183.78 L 0,0 L 221.69,0 L 221.69,183.78"
   id="path3266" />

</clipPath>



<clipPath
   id="clipPath3256">
<path
   d="M 0,183.78 L 0,0 L 221.69,0 L 221.69,183.78"
   id="path3258" />

</clipPath>






</defs>
  <g
     transform="translate(-196.30169,284.17514)"
     id="layer1">
    <g
       transform="translate(17.766522,17.781747)"
       id="g3326">
      <path
         d="M 304.51127,-127.72062 L 212.81932,-284.17514 L 904.15445,-284.17514 L 811.49753,-127.72062 L 304.51127,-127.72062"
         style="fill:#0072bd;fill-rule:nonzero;stroke:none"
         id="path2783" />
      <path
         d="M 716.88893,32.378118 L 556.56304,301.40309 L 399.11667,32.378118 L 716.88893,32.378118"
         style="fill:#0072bd;fill-rule:nonzero;stroke:none"
         id="path2793" />
      <path
         d="M 278.39712,14.435439 L 242.87011,14.435439 L 196.30169,-109.64356 L 228.8148,-109.64356 L 260.736,-22.425759 L 261.13593,-22.425759 L 293.45387,-109.64356 L 325.97658,-109.64356 L 278.39712,14.435439"
         style="fill:#000000;fill-rule:nonzero;stroke:none"
         id="path2803" />
      <path
         d="M 331.18853,-109.64356 L 362.6906,-109.64356 L 362.6906,14.435439 L 331.18853,14.435439 L 331.18853,-109.64356"
         style="fill:#000000;fill-rule:nonzero;stroke:none"
         id="path2805" />
      <path
         d="M 404.84054,-26.745056 C 404.84054,-10.248542 419.69572,-3.8175888 436.55697,-3.8175888 C 447.59518,-3.8175888 464.45323,-6.5947367 464.45323,-19.29027 C 464.45323,-32.664092 442.98153,-34.935723 421.90656,-39.798931 C 400.62362,-44.662139 379.14872,-51.796977 379.14872,-75.05719 C 379.14872,-100.42906 406.84661,-112.61908 432.74,-112.61908 C 462.64873,-112.61908 490.15145,-101.29292 490.15145,-72.625586 L 459.63802,-72.625586 C 458.63338,-87.567154 446.39217,-91.406529 431.33223,-91.406529 C 421.29866,-91.406529 409.65895,-87.759122 409.65895,-77.328821 C 409.65895,-67.762378 416.48024,-66.546576 452.41359,-58.547878 C 462.85029,-56.308243 494.96986,-50.549181 494.96986,-22.425759 C 494.96986,0.35773141 474.29483,17.388559 435.34757,17.388559 C 403.63433,17.388559 373.93357,3.8291662 374.33351,-26.745056 L 404.84054,-26.745056"
         style="fill:#000000;fill-rule:nonzero;stroke:none"
         id="path2807" />
      <path
         d="M 506.21283,-109.64356 L 537.7181,-109.64356 L 537.7181,-62.035311 L 595.72466,-62.035311 L 595.72466,-109.64356 L 627.23953,-109.64356 L 627.23953,14.435439 L 595.72466,14.435439 L 595.72466,-39.095045 L 537.7181,-39.095045 L 537.7181,14.435439 L 506.21283,14.435439 L 506.21283,-109.64356"
         style="fill:#000000;fill-rule:nonzero;stroke:none"
         id="path2809" />
      <path
         d="M 681.85464,-33.527952 L 719.00059,-33.527952 L 700.92353,-79.056539 L 700.5396,-79.056539 L 681.85464,-33.527952 z M 684.86215,-109.64356 L 717.17689,-109.64356 L 770.76816,14.435439 L 738.06949,14.435439 L 727.22325,-13.198462 L 673.63198,-13.198462 L 662.40181,14.435439 L 630.471,14.435439 L 684.86215,-109.64356"
         style="fill:#000000;fill-rule:nonzero;stroke:none"
         id="path2811" />
      <path
         d="M 797.03589,-33.879894 L 744.27648,-109.64356 L 779.79069,-109.64356 L 813.32123,-60.659535 L 846.62781,-109.64356 L 881.75809,-109.64356 L 828.55075,-33.176009 L 828.55075,14.435439 L 797.03589,14.435439 L 797.03589,-33.879894"
         style="fill:#000000;fill-rule:nonzero;stroke:none"
         id="path2813" />
      <path
         d="M 868.64023,-5.6476909 L 872.67157,-5.6476909 C 875.23116,-5.6476909 877.15084,-6.0284289 877.15084,-8.8023773 C 877.15084,-11.249979 874.52727,-11.630717 872.44761,-11.630717 L 868.64023,-11.630717 L 868.64023,-5.6476909 z M 864.12896,-15.166141 L 872.73556,-15.166141 C 878.43063,-15.166141 881.66211,-13.371233 881.66211,-8.4216392 C 881.66211,-4.2335211 879.03854,-2.6017868 875.67908,-2.329831 L 881.75809,7.6269479 L 877.02286,7.6269479 L 871.48776,-2.109067 L 868.64023,-2.109067 L 868.64023,7.6269479 L 864.12896,7.6269479 L 864.12896,-15.166141 z M 872.25564,12.304586 C 880.67027,12.304586 887.58114,5.5568849 887.58114,-3.7440008 C 887.58114,-12.990495 880.67027,-19.674207 872.25564,-19.674207 C 863.71303,-19.674207 856.89814,-12.990495 856.89814,-3.7440008 C 856.89814,5.5568849 863.71303,12.304586 872.25564,12.304586 z M 872.25564,-24.025499 C 883.29384,-24.025499 893.14824,-16.090791 893.14824,-3.7440008 C 893.14824,8.6603797 883.29384,16.655878 872.25564,16.655878 C 861.21744,16.655878 851.36304,8.6603797 851.36304,-3.7440008 C 851.36304,-16.090791 861.21744,-24.025499 872.25564,-24.025499"
         style="fill:#000000;fill-rule:nonzero;stroke:none"
         id="path2815" />
    </g>
  </g>
</svg>
