<?xml version="1.0" encoding="UTF-8" standalone="no"?>
<svg
   xmlns:dc="http://purl.org/dc/elements/1.1/"
   xmlns:cc="http://creativecommons.org/ns#"
   xmlns:rdf="http://www.w3.org/1999/02/22-rdf-syntax-ns#"
   xmlns:svg="http://www.w3.org/2000/svg"
   xmlns="http://www.w3.org/2000/svg"
   height="90.004074"
   width="80.000305"
   id="svg10"
   viewBox="0 0 80.000305 90.004074"
   y="0px"
   x="0px"
   version="1.1">
  <metadata
     id="metadata16">
    <rdf:RDF>
      <cc:Work
         rdf:about="">
        <dc:format>image/svg+xml</dc:format>
        <dc:type
           rdf:resource="http://purl.org/dc/dcmitype/StillImage" />
        <dc:title></dc:title>
      </cc:Work>
    </rdf:RDF>
  </metadata>
  <defs
     id="defs14" />
  <g
     id="g4"
     transform="translate(-9.9999571,-957.35811)">
    <path
       id="path2"
       transform="translate(0,952.36218)"
       d="M 12.6875,5 A 3.0003,3.0003 0 0 0 10,8 v 84 a 3.0003,3.0003 0 0 0 3,3 h 24 a 3.0003,3.0003 0 0 0 3,-3 V 76.21875 L 52.75,72.875 a 3.0003,3.0003 0 0 0 1.34375,-0.71875 L 74.0625,52.78125 A 3.0055288,3.0055288 0 1 0 69.875,48.46875 L 52.03125,65.78125 49.25,63 72.5,39.71875 l 5.375,5.375 a 3.0003,3.0003 0 0 0 4.25,0.03125 l 6.0625,-6.03125 C 89.422117,37.86757 90.014572,36.2321 90,34.65625 89.98587,33.11899 89.376274,31.54853 88.21875,30.375 L 77.78125,19.8125 c -1.157534,-1.17354 -2.706535,-1.79969 -4.25,-1.8125 -1.581075,-0.0137 -3.225077,0.57024 -4.4375,1.8125 L 40,49.65625 V 8 A 3.0003,3.0003 0 0 0 37,5 H 13 A 3.0003,3.0003 0 0 0 12.6875,5 Z M 16,11 H 34 V 59.375 L 30.09375,74.21875 A 3.0003,3.0003 0 0 0 33.75,77.875 L 34,77.8125 V 89 H 16 V 78 h 7 a 3.0003,3.0003 0 1 0 0,-6 H 16 V 61 h 9 a 3.0003,3.0003 0 1 0 0,-6 H 16 V 44 h 7 a 3.0003,3.0003 0 1 0 0,-6 H 16 V 27 h 9 a 3.0003,3.0003 0 1 0 0,-6 h -9 z m 57.46875,13 c 0.02039,1.7e-4 0.0246,-0.0384 0.0625,0 l 10.4375,10.59375 c 0.03823,0.0388 0.03078,0.04295 0.03125,0.09375 6.34e-4,0.0685 -0.005,0.0989 -0.03125,0.125 L 80,38.75 69.40625,28.15625 l 4,-4.125 C 73.43523,24.00155 73.42971,23.9996 73.46875,24 Z m -8.25,8.4375 L 68.25,35.5 45,58.75 42.21875,55.96875 Z m -25.65625,29.34375 6.65625,6.65625 -9,2.34375 z"
       style="color:#000000;font-style:normal;font-variant:normal;font-weight:normal;font-stretch:normal;font-size:medium;line-height:normal;font-family:Sans;-inkscape-font-specification:Sans;text-indent:0;text-align:start;text-decoration:none;text-decoration-line:none;letter-spacing:normal;word-spacing:normal;text-transform:none;writing-mode:lr-tb;direction:ltr;baseline-shift:baseline;text-anchor:start;display:inline;overflow:visible;visibility:visible;opacity:1;fill:#000000;fill-opacity:1;stroke:none;stroke-width:6;marker:none;enable-background:accumulate" />
  </g>
</svg>
