<?xml version="1.0" encoding="UTF-8" standalone="no"?>
<svg
   xmlns:dc="http://purl.org/dc/elements/1.1/"
   xmlns:cc="http://creativecommons.org/ns#"
   xmlns:rdf="http://www.w3.org/1999/02/22-rdf-syntax-ns#"
   xmlns:svg="http://www.w3.org/2000/svg"
   xmlns="http://www.w3.org/2000/svg"
   height="78.000038"
   width="78"
   id="svg10"
   viewBox="0 0 78 78.000038"
   y="0px"
   x="0px"
   version="1.1">
  <metadata
     id="metadata16">
    <rdf:RDF>
      <cc:Work
         rdf:about="">
        <dc:format>image/svg+xml</dc:format>
        <dc:type
           rdf:resource="http://purl.org/dc/dcmitype/StillImage" />
        <dc:title></dc:title>
      </cc:Work>
    </rdf:RDF>
  </metadata>
  <defs
     id="defs14" />
  <g
     id="g4"
     transform="translate(-11,-963.36216)">
    <path
       id="path2"
       overflow="visible"
       display="inline"
       visibility="visible"
       marker="none"
       d="m 50,963.36216 c -21.52967,0 -39,17.5016 -39,39.03124 0,21.5297 17.47033,38.9688 39,38.9688 21.52968,0 39,-17.4391 39,-38.9688 0,-8.89934 -2.97723,-17.11624 -8,-23.68754 -0.0219,0.9367 -0.17815,1.9167 -0.375,2.9063 3.84776,5.6648 6.18046,12.4626 6.375,19.78124 H 70.78125 c -0.34435,0.4951 -0.79743,0.9322 -1.1875,1.3125 -0.24658,0.2151 -0.63295,0.6911 -1.59375,0.6875 -1.01573,0 -1.34717,-0.4724 -1.59375,-0.6875 -0.47708,-0.4028 -0.82701,-0.8589 -1.1875,-1.3125 H 51 v -16.03124 c 1.7525,-0.02 3.54202,-0.064 5.375,-0.1563 -0.23147,-0.6621 -0.44553,-1.3143 -0.625,-1.9687 -1.61169,0.078 -3.19655,0.1391 -4.75,0.1562 v -17.0938 c 2.49477,0.2897 4.8628,1.645 6.96875,3.8438 0.43301,-0.5242 0.92898,-1.0177 1.4375,-1.4688 -0.89262,-1.0374 -1.8373,-1.9531 -2.8125,-2.6874 1.65972,0.298 3.26949,0.7084 4.84375,1.2187 0.83172,-0.4913 1.72041,-0.8897 2.65625,-1.1875 -4.37334,-1.7004 -9.12244,-2.6562 -14.09375,-2.6562 z m -6.59375,2.625 c -4.02484,3.0319 -7.38316,8.7836 -9.59375,16.1562 -4.35197,-0.7757 -8.46624,-1.9922 -11.90625,-3.8438 5.4275,-6.3272 12.94568,-10.7784 21.5,-12.3124 z m 5.46875,0.3124 c 0.2647,5.3662 0.125,11.4563 0.125,17.0626 -4.39606,-0.034 -9.11063,-0.2697 -13.65625,-0.9688 2.95197,-9.1214 7.88142,-15.352 13.53125,-16.0938 z m 19.125,0.094 c -6.61558,0 -12,5.3845 -12,12 0,4.4167 2.58976,10.1549 5.25,14.9688 1.78341,3.0525 3.5207,6.18464 5.8125,8.59374 0.18737,0.1635 0.25,0.4375 0.9375,0.4375 0.6875,0 0.75013,-0.274 0.9375,-0.4375 2.3963,-2.5856 4.33161,-5.92624 5.8125,-8.59374 2.66024,-4.8138 5.25,-10.5521 5.25,-14.9688 0,-6.6155 -5.38443,-12 -12,-12 z m 0,2 c 5.53469,0 10,4.4653 10,10 0,3.5833 -2.41024,9.3138 -5,14 -1.56277,2.7546 -3.1164,5.2688 -5,7.68754 -1.89034,-2.41014 -3.67514,-5.30254 -5,-7.68754 -2.58976,-4.6862 -5,-10.4167 -5,-14 0,-5.5347 4.4653,-10 10,-10 z m 0,5 c -2.74957,0 -5,2.2504 -5,5 0,2.7496 2.25043,5 5,5 2.74958,0 5,-2.2504 5,-5 0,-2.7496 -2.25042,-5 -5,-5 z m 0,2 c 1.6687,0 3,1.3313 3,3 0,1.6687 -1.3313,3 -3,3 -1.66869,0 -3,-1.3313 -3,-3 0,-1.6687 1.33131,-3 3,-3 z m -47.40625,4.5 c 3.71788,2.0785 8.09517,3.3954 12.65625,4.2188 -1.34833,5.1621 -2.14329,11.0335 -2.21875,17.28124 h -18 c 0.2143,-8.07224 2.98208,-15.51744 7.5625,-21.50004 z m 14.15625,4.4688 c 4.78282,0.7469 9.69398,0.9693 14.25,1 v 16.03124 H 32.4375 c 0.0802,-6.19964 0.89942,-11.99204 2.3125,-17.03124 z m -21.71875,19.03124 h 18 c 0.0793,6.2494 0.83987,12.1209 2.1875,17.2812 -4.54938,0.8171 -8.91594,2.1151 -12.625,4.1876 -4.58042,-5.9828 -7.3482,-13.3966 -7.5625,-21.4688 z m 19.40625,0 H 49 v 16.0312 c -4.54677,0.032 -9.44481,0.2636 -14.21875,1 -1.41538,-5.0335 -2.25919,-10.8365 -2.34375,-17.0312 z m 18.5625,0 h 16.59375 c -0.0847,6.1937 -0.92702,11.9985 -2.34375,17.0312 -4.78282,-0.7399 -9.69398,-0.9685 -14.25,-1 z m 17.96875,0 H 87 c -0.21458,8.0723 -3.00823,15.486 -7.59375,21.4688 -3.71727,-2.0773 -8.09597,-3.3707 -12.65625,-4.1876 1.35871,-5.1603 2.13862,-11.0317 2.21875,-17.2812 z M 49,1021.4246 v 17 c -5.69791,-0.6608 -10.68129,-6.8573 -13.65625,-16.0312 4.54562,-0.6923 9.26019,-0.9342 13.65625,-0.9688 z m 2,0 c 4.39606,0.035 9.11063,0.2765 13.65625,0.9688 -2.97848,9.1737 -7.95877,15.3705 -13.65625,16.0312 z m -17.1875,1.1876 c 2.21489,7.4068 5.57894,13.1719 9.625,16.1874 -8.56804,-1.5283 -16.09673,-6.0079 -21.53125,-12.3437 3.44105,-1.8504 7.55284,-3.0747 11.90625,-3.8437 z m 32.40625,0.031 c 4.34012,0.7694 8.44348,1.9673 11.875,3.8125 -5.44976,6.3469 -13.00486,10.8229 -21.59375,12.3437 4.05728,-3.0142 7.48638,-8.7542 9.71875,-16.1562 z"
       style="color:#000000;text-indent:0;text-transform:none;direction:ltr;baseline-shift:baseline;display:inline;overflow:visible;visibility:visible;fill:#000000;fill-opacity:1;stroke:none;enable-background:accumulate" />
  </g>
</svg>
