<?xml version="1.0" encoding="UTF-8" standalone="no"?>
<svg
   xmlns:ns="http://ns.adobe.com/SaveForWeb/1.0/"
   xmlns:dc="http://purl.org/dc/elements/1.1/"
   xmlns:cc="http://creativecommons.org/ns#"
   xmlns:rdf="http://www.w3.org/1999/02/22-rdf-syntax-ns#"
   xmlns:svg="http://www.w3.org/2000/svg"
   xmlns="http://www.w3.org/2000/svg"
   height="46.000683"
   width="50"
   id="svg22"
   xml:space="preserve"
   enable-background="new 0 0 64 64"
   viewBox="0 0 50 46.000683"
   y="0px"
   x="0px"
   version="1.1"><defs
     id="defs26" /><metadata
     id="metadata2"><ns:sfw><ns:slices /><ns:sliceSourceBounds
         bottomLeftOrigin="true"
         height="16384"
         width="16389"
         x="-8165"
         y="-8160" /></ns:sfw><rdf:RDF><cc:Work
         rdf:about=""><dc:format>image/svg+xml</dc:format><dc:type
           rdf:resource="http://purl.org/dc/dcmitype/StillImage" /><dc:title></dc:title></cc:Work></rdf:RDF></metadata><path
     id="path4"
     d="m 49.447,6.105 -12,-6 C 37.438,0.101 37.428,0.103 37.42,0.099 37.291,0.039 37.151,0 37,0 36.849,0 36.709,0.039 36.58,0.099 36.571,0.103 36.561,0.101 36.553,0.105 L 25,5.882 13.447,0.105 C 13.438,0.101 13.428,0.103 13.419,0.098 13.291,0.039 13.151,0 13,0 12.849,0 12.709,0.039 12.581,0.099 12.572,0.103 12.562,0.101 12.553,0.106 l -12,6 C 0.214,6.275 0,6.621 0,7 v 38 c 0,0.347 0.18,0.668 0.474,0.851 0.295,0.184 0.663,0.198 0.973,0.044 L 13,40.118 24.553,45.894 c 0.009,0.004 0.019,0.003 0.028,0.007 C 24.709,45.961 24.849,46 25,46 c 0.151,0 0.291,-0.039 0.419,-0.099 0.009,-0.004 0.019,-0.003 0.028,-0.007 L 37,40.118 48.553,45.894 C 48.694,45.965 48.847,46 49,46 49.183,46 49.365,45.95 49.525,45.851 49.82,45.668 50,45.347 50,45 V 7 C 50,6.621 49.786,6.275 49.447,6.105 Z M 35,20 h 1 v 18.382 l -10,5 V 28 h 1 c 0.553,0 1,-0.447 1,-1 0,-0.553 -0.447,-1 -1,-1 H 26 V 7.618 l 10,-5 V 18 h -1 c -0.553,0 -1,0.448 -1,1 0,0.552 0.447,1 1,1 z m -21,2 h 3 c 0.552,0 1,-0.448 1,-1 0,-0.552 -0.448,-1 -1,-1 H 14 V 2.618 l 10,5 V 26 h -1 c -0.552,0 -1,0.447 -1,1 0,0.553 0.448,1 1,1 h 1 v 15.382 l -10,-5 z M 2,7.618 l 10,-5 V 20 H 9 c -0.552,0 -1,0.448 -1,1 0,0.552 0.448,1 1,1 h 3 v 16.382 l -10,5 z m 46,35.764 -10,-5 V 20 h 1 c 0.553,0 1,-0.448 1,-1 0,-0.552 -0.447,-1 -1,-1 H 38 V 2.618 l 10,5 z" /><path
     id="path6"
     d="M 8,15 C 8,14.448 7.552,14 7,14 6.448,14 6,14.448 6,15 v 4 c 0,0.552 0.448,1 1,1 0.552,0 1,-0.448 1,-1 z" /><path
     id="path8"
     d="m 21.707,24.293 -2,-2 c -0.391,-0.391 -1.023,-0.391 -1.414,0 -0.391,0.391 -0.391,1.023 0,1.414 l 2,2 C 20.488,25.902 20.744,26 21,26 c 0.256,0 0.512,-0.098 0.707,-0.293 0.391,-0.391 0.391,-1.023 0,-1.414 z" /><path
     id="path10"
     d="m 32.293,20.293 -4,4 c -0.391,0.391 -0.391,1.023 0,1.414 C 28.488,25.902 28.744,26 29,26 c 0.256,0 0.512,-0.098 0.707,-0.293 l 4,-4 c 0.391,-0.391 0.391,-1.023 0,-1.414 -0.391,-0.391 -1.023,-0.391 -1.414,0 z" /><path
     id="path12"
     d="m 41.586,19 -1.293,1.293 c -0.391,0.391 -0.391,1.023 0,1.414 C 40.488,21.902 40.744,22 41,22 c 0.256,0 0.512,-0.098 0.707,-0.293 L 43,20.414 44.293,21.707 C 44.488,21.902 44.744,22 45,22 c 0.256,0 0.512,-0.098 0.707,-0.293 0.391,-0.391 0.391,-1.023 0,-1.414 L 44.414,19 45.707,17.707 c 0.391,-0.391 0.391,-1.023 0,-1.414 -0.391,-0.391 -1.023,-0.391 -1.414,0 L 43,17.586 41.707,16.293 c -0.391,-0.391 -1.023,-0.391 -1.414,0 -0.391,0.391 -0.391,1.023 0,1.414 z" /></svg>