<?xml version="1.0" encoding="UTF-8" standalone="no"?>
<svg
   viewBox="0 0 48 48"
   x="0px"
   y="0px"
   version="1.1"
   id="svg26"
   sodipodi:docname="noun-binary-file-4572921.svg"
   width="48"
   height="48"
   inkscape:version="1.1.2 (0a00cf5339, 2022-02-04)"
   xmlns:inkscape="http://www.inkscape.org/namespaces/inkscape"
   xmlns:sodipodi="http://sodipodi.sourceforge.net/DTD/sodipodi-0.dtd"
   xmlns="http://www.w3.org/2000/svg"
   xmlns:svg="http://www.w3.org/2000/svg">
  <defs
     id="defs30" />
  <sodipodi:namedview
     id="namedview28"
     pagecolor="#ffffff"
     bordercolor="#666666"
     borderopacity="1.0"
     inkscape:pageshadow="2"
     inkscape:pageopacity="0.0"
     inkscape:pagecheckerboard="0"
     showgrid="false"
     inkscape:zoom="6.8916667"
     inkscape:cx="22.128174"
     inkscape:cy="12.914148"
     inkscape:window-width="1920"
     inkscape:window-height="1051"
     inkscape:window-x="1680"
     inkscape:window-y="0"
     inkscape:window-maximized="1"
     inkscape:current-layer="svg26" />
  <path
     d="m 41,11.94 a 2,2 0 0 0 -0.05,-0.26 0.36,0.36 0 0 0 0,-0.09 1.17,1.17 0 0 0 -0.19,-0.3 l -8,-8 A 1.17,1.17 0 0 0 32.46,3.1 H 32.37 A 1.09,1.09 0 0 0 32.06,3 H 8 A 1,1 0 0 0 7,4 v 40 a 1,1 0 0 0 1,1 h 32 a 1,1 0 0 0 1,-1 V 12 c 0,0 0,0 0,-0.06 z M 33,6.41 37.59,11 H 33 Z M 39,43 H 9 V 5 h 22 v 7 a 1,1 0 0 0 1,1 h 7 z"
     id="path2" />
  <path
     d="m 12,15.09 a 1,1 0 0 0 1,-1 V 8 a 1,1 0 0 0 -2,0 v 6.09 a 1,1 0 0 0 1,1 z"
     id="path4" />
  <path
     d="m 22,15.09 a 1,1 0 0 0 1,-1 V 8 a 1,1 0 0 0 -2,0 v 6.09 a 1,1 0 0 0 1,1 z"
     id="path6" />
  <path
     d="m 17,7 a 3,3 0 0 0 -3,3 v 2 a 3,3 0 0 0 6,0 V 10 A 3,3 0 0 0 17,7 Z m 1,5 a 1,1 0 0 1 -2,0 v -2 a 1,1 0 0 1 2,0 z"
     id="path8" />
  <path
     d="m 27,7 a 3,3 0 0 0 -3,3 v 2 a 3,3 0 1 0 6,0 V 10 A 3,3 0 0 0 27,7 Z m 1,5 a 1,1 0 1 1 -2,0 v -2 a 1,1 0 0 1 2,0 z"
     id="path10" />
  <path
     d="m 29,17 a 1,1 0 0 0 -1,1 v 6.09 a 1,1 0 1 0 2,0 V 18 a 1,1 0 0 0 -1,-1 z"
     id="path12" />
  <path
     d="m 19,17 a 1,1 0 0 0 -1,1 v 6.09 a 1,1 0 1 0 2,0 V 18 a 1,1 0 0 0 -1,-1 z"
     id="path14" />
  <path
     d="m 24,17 a 3,3 0 0 0 -3,3 v 2 a 3,3 0 0 0 6,0 v -2 a 3,3 0 0 0 -3,-3 z m 1,5 a 1,1 0 0 1 -2,0 v -2 a 1,1 0 0 1 2,0 z"
     id="path16" />
  <path
     d="m 31,20 v 2 a 3,3 0 0 0 6,0 v -2 a 3,3 0 0 0 -6,0 z m 2,0 a 1,1 0 0 1 2,0 v 2 a 1,1 0 0 1 -2,0 z"
     id="path18" />
  <path
     d="m 14,17 a 3,3 0 0 0 -3,3 v 2 a 3,3 0 0 0 6,0 v -2 a 3,3 0 0 0 -3,-3 z m 1,5 a 1,1 0 0 1 -2,0 v -2 a 1,1 0 0 1 2,0 z"
     id="path20" />
</svg>
