<?xml version="1.0" encoding="UTF-8" standalone="no"?>
<svg
   enable-background="new 0 0 24 24"
   height="96"
   viewBox="0 0 96 96"
   width="96"
   version="1.1"
   id="svg10"
   sodipodi:docname="podcasts_material.svg"
   inkscape:version="1.1.2 (0a00cf5339, 2022-02-04)"
   xmlns:inkscape="http://www.inkscape.org/namespaces/inkscape"
   xmlns:sodipodi="http://sodipodi.sourceforge.net/DTD/sodipodi-0.dtd"
   xmlns="http://www.w3.org/2000/svg"
   xmlns:svg="http://www.w3.org/2000/svg">
  <defs
     id="defs14" />
  <sodipodi:namedview
     id="namedview12"
     pagecolor="#ffffff"
     bordercolor="#666666"
     borderopacity="1.0"
     inkscape:pageshadow="2"
     inkscape:pageopacity="0.0"
     inkscape:pagecheckerboard="0"
     showgrid="false"
     width="96px"
     inkscape:zoom="2.1536458"
     inkscape:cx="-96.348246"
     inkscape:cy="-6.9649335"
     inkscape:window-width="1920"
     inkscape:window-height="1051"
     inkscape:window-x="1680"
     inkscape:window-y="0"
     inkscape:window-maximized="1"
     inkscape:current-layer="svg10" />
  <g
     id="g4"
     transform="scale(4)">
    <path
       d="M 0,0 H 24 V 24 H 0 Z"
       fill="none"
       id="path2" />
  </g>
  <g
     id="g8"
     transform="scale(4)">
    <path
       d="m 14,12 c 0,0.74 -0.4,1.38 -1,1.72 V 22 H 11 V 13.72 C 10.4,13.37 10,12.74 10,12 c 0,-1.1 0.9,-2 2,-2 1.1,0 2,0.9 2,2 z M 12,6 c -3.31,0 -6,2.69 -6,6 0,1.74 0.75,3.31 1.94,4.4 L 9.36,14.98 C 8.53,14.25 8,13.19 8,12 8,9.79 9.79,8 12,8 c 2.21,0 4,1.79 4,4 0,1.19 -0.53,2.25 -1.36,2.98 l 1.42,1.42 C 17.25,15.31 18,13.74 18,12 18,8.69 15.31,6 12,6 Z M 12,2 C 6.48,2 2,6.48 2,12 c 0,2.85 1.2,5.41 3.11,7.24 L 6.53,17.82 C 4.98,16.36 4,14.29 4,12 4,7.59 7.59,4 12,4 c 4.41,0 8,3.59 8,8 0,2.29 -0.98,4.36 -2.53,5.82 l 1.42,1.42 C 20.8,17.41 22,14.85 22,12 22,6.48 17.52,2 12,2 Z"
       id="path6" />
  </g>
</svg>
