<?xml version="1.0" encoding="UTF-8" standalone="no"?>
<svg
   height="96"
   viewBox="0 0 96 96"
   width="96"
   version="1.1"
   id="svg6"
   sodipodi:docname="timelapse.svg"
   inkscape:version="1.1.2 (0a00cf5339, 2022-02-04)"
   xmlns:inkscape="http://www.inkscape.org/namespaces/inkscape"
   xmlns:sodipodi="http://sodipodi.sourceforge.net/DTD/sodipodi-0.dtd"
   xmlns="http://www.w3.org/2000/svg"
   xmlns:svg="http://www.w3.org/2000/svg">
  <defs
     id="defs10" />
  <sodipodi:namedview
     id="namedview8"
     pagecolor="#ffffff"
     bordercolor="#666666"
     borderopacity="1.0"
     inkscape:pageshadow="2"
     inkscape:pageopacity="0.0"
     inkscape:pagecheckerboard="0"
     showgrid="false"
     inkscape:zoom="3.0457152"
     inkscape:cx="21.505622"
     inkscape:cy="11.163224"
     inkscape:window-width="1920"
     inkscape:window-height="1051"
     inkscape:window-x="1680"
     inkscape:window-y="0"
     inkscape:window-maximized="1"
     inkscape:current-layer="svg6" />
  <path
     d="M 0,0 H 96 V 96 H 0 Z"
     fill="none"
     id="path2"
     style="stroke-width:4" />
  <path
     d="M 64.96,31.04 C 60.28,26.36 54.16,24 48,24 V 48 L 31.04,64.96 C 40.4,74.32 55.6,74.32 65,64.96 74.36,55.6 74.36,40.4 64.96,31.04 Z M 48,8 C 25.92,8 8,25.92 8,48 8,70.08 25.92,88 48,88 70.08,88 88,70.08 88,48 88,25.92 70.08,8 48,8 Z m 0,72 C 30.32,80 16,65.68 16,48 16,30.32 30.32,16 48,16 65.68,16 80,30.32 80,48 80,65.68 65.68,80 48,80 Z"
     id="path4"
     style="stroke-width:4" />
</svg>
