<?xml version="1.0" encoding="UTF-8" standalone="no"?>
<!-- Generator: Adobe Illustrator 24.2.1, SVG Export Plug-In . SVG Version: 6.00 Build 0)  -->

<svg
   xmlns:dc="http://purl.org/dc/elements/1.1/"
   xmlns:cc="http://creativecommons.org/ns#"
   xmlns:rdf="http://www.w3.org/1999/02/22-rdf-syntax-ns#"
   xmlns:svg="http://www.w3.org/2000/svg"
   xmlns="http://www.w3.org/2000/svg"
   xmlns:sodipodi="http://sodipodi.sourceforge.net/DTD/sodipodi-0.dtd"
   xmlns:inkscape="http://www.inkscape.org/namespaces/inkscape"
   version="1.2"
   x="0px"
   y="0px"
   viewBox="0 0 202.8 202.89999"
   overflow="visible"
   xml:space="preserve"
   id="svg30"
   sodipodi:docname="mqtt-logo-only.svg"
   width="202.8"
   height="202.89999"
   style="overflow:visible"
   inkscape:version="0.92.4 (5da689c313, 2019-01-14)"><metadata
   id="metadata36"><rdf:RDF><cc:Work
       rdf:about=""><dc:format>image/svg+xml</dc:format><dc:type
         rdf:resource="http://purl.org/dc/dcmitype/StillImage" /><dc:title></dc:title></cc:Work></rdf:RDF></metadata><defs
   id="defs34" /><sodipodi:namedview
   pagecolor="#ffffff"
   bordercolor="#666666"
   borderopacity="1"
   objecttolerance="10"
   gridtolerance="10"
   guidetolerance="10"
   inkscape:pageopacity="0"
   inkscape:pageshadow="2"
   inkscape:window-width="1920"
   inkscape:window-height="1051"
   id="namedview32"
   showgrid="false"
   fit-margin-right="-0.1"
   fit-margin-top="0"
   fit-margin-left="0"
   fit-margin-bottom="0"
   inkscape:zoom="1.0290909"
   inkscape:cx="496.99233"
   inkscape:cy="-18.479991"
   inkscape:window-x="1280"
   inkscape:window-y="0"
   inkscape:window-maximized="1"
   inkscape:current-layer="logos" />
<g
   id="black_bg"
   display="none"
   style="display:none"
   transform="translate(-45.9,-44.2)">
</g>
<g
   id="logos"
   transform="translate(-45.9,-44.2)">
	
	<path
   d="m 46,64.2 v 31 c 0.2,0 0.4,0 0.6,0 84.4,0 153.2,68 153.9,151.8 h 30.1 C 229.8,146.3 147.4,64.5 46,64.2 Z"
   id="path15"
   inkscape:connector-curvature="0"
   style="fill:#ffffff" />
	<path
   d="m 46,128.2 v 31 c 0.2,0 0.4,0 0.6,0 48.9,0 88.8,39.3 89.5,87.8 h 30.1 C 165.5,181.6 111.9,128.5 46,128.2 Z"
   id="path17"
   inkscape:connector-curvature="0"
   style="fill:#ffffff" />
	<path
   d="M 248.8,166.8 V 104.3 C 241.1,93.8 231.6,81.8 222.1,72.5 211.5,62 199.1,52.5 187.1,44.2 h -66.4 c 58.2,20.9 104.9,65.8 128.1,122.6 z"
   id="path19"
   inkscape:connector-curvature="0"
   style="fill:#ffffff" />
	<path
   d="m 46.5,159.2 c -0.2,0 -0.4,0 -0.6,0 v 77.6 c 0,5.6 4.6,10.2 10.2,10.2 H 136 C 135.3,198.5 95.5,159.2 46.5,159.2 Z"
   id="path21"
   inkscape:connector-curvature="0"
   style="fill:#660066" />
	<path
   d="m 46.5,95.2 c -0.2,0 -0.4,0 -0.6,0 v 33 c 65.9,0.3 119.5,53.3 120.2,118.8 h 34.2 C 199.7,163.2 131,95.2 46.5,95.2 Z"
   id="path23"
   inkscape:connector-curvature="0"
   style="fill:#660066" />
	<path
   d="M 248.8,236.9 V 166.8 C 225.6,110 178.9,65.1 120.8,44.2 H 56.1 c -5.6,0 -10.2,4.6 -10.2,10.2 v 9.9 c 101.4,0.3 183.9,82 184.5,182.8 h 8.2 c 5.7,-0.1 10.2,-4.6 10.2,-10.2 z"
   id="path25"
   inkscape:connector-curvature="0"
   style="fill:#660066" />
	<path
   d="m 222.1,72.5 c 9.4,9.4 19,21.3 26.7,31.8 v -50 c 0,-5.6 -4.5,-10.1 -10.1,-10.1 h -51.5 c 12,8.3 24.4,17.8 34.9,28.3 z"
   id="path27"
   inkscape:connector-curvature="0"
   style="fill:#660066" />
</g>
</svg>