<svg xmlns:dc="http://purl.org/dc/elements/1.1/" xmlns:cc="http://creativecommons.org/ns#" xmlns:rdf="http://www.w3.org/1999/02/22-rdf-syntax-ns#" xmlns:svg="http://www.w3.org/2000/svg" xmlns="http://www.w3.org/2000/svg" xmlns:sodipodi="http://sodipodi.sourceforge.net/DTD/sodipodi-0.dtd" xmlns:inkscape="http://www.inkscape.org/namespaces/inkscape" version="1.1" x="0px" y="0px" viewBox="0 0 100 125"><g transform="translate(0,-952.36218)"><path style="font-size:medium;font-style:normal;font-variant:normal;font-weight:normal;font-stretch:normal;text-indent:0;text-align:start;text-decoration:none;line-height:normal;letter-spacing:normal;word-spacing:normal;text-transform:none;direction:ltr;block-progression:tb;writing-mode:lr-tb;text-anchor:start;baseline-shift:baseline;opacity:1;color:#000000;fill:#000000;fill-opacity:1;stroke:none;stroke-width:6;marker:none;visibility:visible;display:inline;overflow:visible;enable-background:accumulate;font-family:Sans;-inkscape-font-specification:Sans" d="M 12.6875 5 A 3.0003 3.0003 0 0 0 10 8 L 10 92 A 3.0003 3.0003 0 0 0 13 95 L 37 95 A 3.0003 3.0003 0 0 0 40 92 L 40 76.21875 L 52.75 72.875 A 3.0003 3.0003 0 0 0 54.09375 72.15625 L 74.0625 52.78125 A 3.0054929 3.0054929 0 1 0 69.875 48.46875 L 52.03125 65.78125 L 49.25 63 L 72.5 39.71875 L 77.875 45.09375 A 3.0003 3.0003 0 0 0 82.125 45.125 L 88.1875 39.09375 C 89.422117 37.86757 90.014572 36.2321 90 34.65625 C 89.98587 33.11899 89.376274 31.54853 88.21875 30.375 L 77.78125 19.8125 C 76.623716 18.63896 75.074715 18.01281 73.53125 18 C 71.950175 17.9863 70.306173 18.57024 69.09375 19.8125 L 40 49.65625 L 40 8 A 3.0003 3.0003 0 0 0 37 5 L 13 5 A 3.0003 3.0003 0 0 0 12.6875 5 z M 16 11 L 34 11 L 34 59.375 L 30.09375 74.21875 A 3.0003 3.0003 0 0 0 33.75 77.875 L 34 77.8125 L 34 89 L 16 89 L 16 78 L 23 78 A 3.0003 3.0003 0 1 0 23 72 L 16 72 L 16 61 L 25 61 A 3.0003 3.0003 0 1 0 25 55 L 16 55 L 16 44 L 23 44 A 3.0003 3.0003 0 1 0 23 38 L 16 38 L 16 27 L 25 27 A 3.0003 3.0003 0 1 0 25 21 L 16 21 L 16 11 z M 73.46875 24 C 73.48914 24.00017 73.49335 23.9616 73.53125 24 L 83.96875 34.59375 C 84.00698 34.63255 83.99953 34.6367 84 34.6875 C 84.000634 34.756 83.995 34.7864 83.96875 34.8125 L 80 38.75 L 69.40625 28.15625 L 73.40625 24.03125 C 73.43523 24.00155 73.42971 23.9996 73.46875 24 z M 65.21875 32.4375 L 68.25 35.5 L 45 58.75 L 42.21875 55.96875 L 65.21875 32.4375 z M 39.5625 61.78125 L 46.21875 68.4375 L 37.21875 70.78125 L 39.5625 61.78125 z " transform="translate(0,952.36218)"/></g><text x="0" y="115" fill="#000000" font-size="5px" font-weight="bold" font-family="'Helvetica Neue', Helvetica, Arial-Unicode, Arial, Sans-serif">Created by pictohaven</text><text x="0" y="120" fill="#000000" font-size="5px" font-weight="bold" font-family="'Helvetica Neue', Helvetica, Arial-Unicode, Arial, Sans-serif">from the Noun Project</text></svg>