<svg xmlns:x="http://ns.adobe.com/Extensibility/1.0/" xmlns:i="http://ns.adobe.com/AdobeIllustrator/10.0/" xmlns:graph="http://ns.adobe.com/Graphs/1.0/" xmlns="http://www.w3.org/2000/svg" xmlns:xlink="http://www.w3.org/1999/xlink" version="1.1" x="0px" y="0px" viewBox="0 0 64 80" enable-background="new 0 0 64 64" xml:space="preserve"><metadata><sfw xmlns="http://ns.adobe.com/SaveForWeb/1.0/"><slices/><sliceSourceBounds y="-8160" x="-8165" width="16389" height="16384" bottomLeftOrigin="true"/></sfw></metadata><g><g><path d="M56.447,15.105l-12-6c-0.009-0.004-0.019-0.002-0.027-0.006C44.291,9.039,44.151,9,44,9s-0.291,0.039-0.42,0.099    c-0.009,0.004-0.019,0.002-0.027,0.006L32,14.882L20.447,9.105c-0.009-0.004-0.019-0.002-0.028-0.007C20.291,9.039,20.151,9,20,9    s-0.291,0.039-0.419,0.099c-0.009,0.004-0.019,0.002-0.028,0.007l-12,6C7.214,15.275,7,15.621,7,16v38    c0,0.347,0.18,0.668,0.474,0.851c0.295,0.184,0.663,0.198,0.973,0.044L20,49.118l11.553,5.776    c0.009,0.004,0.019,0.003,0.028,0.007C31.709,54.961,31.849,55,32,55s0.291-0.039,0.419-0.099    c0.009-0.004,0.019-0.003,0.028-0.007L44,49.118l11.553,5.776C55.694,54.965,55.847,55,56,55c0.183,0,0.365-0.05,0.525-0.149    C56.82,54.668,57,54.347,57,54V16C57,15.621,56.786,15.275,56.447,15.105z M42,29h1v18.382l-10,5V37h1c0.553,0,1-0.447,1-1    s-0.447-1-1-1h-1V16.618l10-5V27h-1c-0.553,0-1,0.448-1,1S41.447,29,42,29z M21,31h3c0.552,0,1-0.448,1-1s-0.448-1-1-1h-3V11.618    l10,5V35h-1c-0.552,0-1,0.447-1,1s0.448,1,1,1h1v15.382l-10-5V31z M9,16.618l10-5V29h-3c-0.552,0-1,0.448-1,1s0.448,1,1,1h3    v16.382l-10,5V16.618z M55,52.382l-10-5V29h1c0.553,0,1-0.448,1-1s-0.447-1-1-1h-1V11.618l10,5V52.382z"/><path d="M15,24c0-0.552-0.448-1-1-1s-1,0.448-1,1v4c0,0.552,0.448,1,1,1s1-0.448,1-1V24z"/><path d="M28.707,33.293l-2-2c-0.391-0.391-1.023-0.391-1.414,0s-0.391,1.023,0,1.414l2,2C27.488,34.902,27.744,35,28,35    s0.512-0.098,0.707-0.293C29.098,34.316,29.098,33.684,28.707,33.293z"/><path d="M39.293,29.293l-4,4c-0.391,0.391-0.391,1.023,0,1.414C35.488,34.902,35.744,35,36,35s0.512-0.098,0.707-0.293l4-4    c0.391-0.391,0.391-1.023,0-1.414S39.684,28.902,39.293,29.293z"/><path d="M48.586,28l-1.293,1.293c-0.391,0.391-0.391,1.023,0,1.414C47.488,30.902,47.744,31,48,31s0.512-0.098,0.707-0.293    L50,29.414l1.293,1.293C51.488,30.902,51.744,31,52,31s0.512-0.098,0.707-0.293c0.391-0.391,0.391-1.023,0-1.414L51.414,28    l1.293-1.293c0.391-0.391,0.391-1.023,0-1.414s-1.023-0.391-1.414,0L50,26.586l-1.293-1.293c-0.391-0.391-1.023-0.391-1.414,0    s-0.391,1.023,0,1.414L48.586,28z"/></g></g><text x="0" y="79" fill="#000000" font-size="5px" font-weight="bold" font-family="'Helvetica Neue', Helvetica, Arial-Unicode, Arial, Sans-serif">Created by Ralf Schmitzer</text><text x="0" y="84" fill="#000000" font-size="5px" font-weight="bold" font-family="'Helvetica Neue', Helvetica, Arial-Unicode, Arial, Sans-serif">from the Noun Project</text></svg>